<svg width="484" height="812" viewBox="0 0 484 812" fill="none" xmlns="http://www.w3.org/2000/svg">
<g clip-path="(#clip0_1_23)">
<rect width="484" height="812" fill="#1F1F1F"/>
<ellipse cx="-47.0467" cy="507.716" rx="391.032" ry="316.619" transform="rotate(-30 -47.0467 507.716)" fill-opacity="0.4"/>
<path fill-rule="evenodd" clip-rule="evenodd" d="M191.742 106.154L186.223 100.636L180.705 106.154L182.363 107.812L185.051 105.124V115.189C185.051 117.779 187.15 119.879 189.74 119.879H192.085V117.534H189.74C188.445 117.534 187.396 116.484 187.396 115.189V105.124L190.084 107.812L191.742 106.154ZM196.774 115.876L194.086 113.188L192.428 114.846L197.947 120.364L203.465 114.846L201.807 113.188L199.119 115.876V105.811C199.119 103.221 197.019 101.121 194.43 101.121L192.085 101.121V103.466L194.43 103.466C195.724 103.466 196.774 104.516 196.774 105.811V115.876Z" fill="white"/>
<path d="M223.726 103.435H225.742V117H223.726V110.741H217.593V117H215.578V103.435H217.593V108.725H223.726V103.435ZM228.068 117V103.435H230.248L236.478 113.357V103.435H238.493V117H236.313L230.083 107.078V117H228.068ZM245.658 117.252C244.915 117.252 244.201 117.136 243.516 116.903C242.832 116.671 242.234 116.338 241.724 115.905C241.213 115.466 240.848 114.946 240.629 114.345L242.518 113.638C242.628 113.948 242.838 114.226 243.148 114.471C243.465 114.71 243.839 114.897 244.272 115.033C244.711 115.169 245.173 115.237 245.658 115.237C246.174 115.237 246.659 115.153 247.111 114.985C247.57 114.817 247.938 114.584 248.215 114.287C248.5 113.99 248.642 113.641 248.642 113.241C248.642 112.827 248.493 112.488 248.196 112.223C247.905 111.958 247.531 111.748 247.072 111.593C246.62 111.438 246.148 111.322 245.658 111.245C244.708 111.09 243.855 110.864 243.1 110.566C242.35 110.269 241.756 109.853 241.317 109.316C240.884 108.78 240.668 108.083 240.668 107.224C240.668 106.416 240.897 105.712 241.356 105.111C241.821 104.511 242.431 104.046 243.187 103.716C243.949 103.38 244.773 103.212 245.658 103.212C246.387 103.212 247.092 103.329 247.77 103.561C248.454 103.787 249.055 104.12 249.572 104.559C250.095 104.992 250.47 105.518 250.696 106.138L248.787 106.826C248.677 106.51 248.467 106.235 248.157 106.003C247.847 105.764 247.473 105.576 247.033 105.441C246.601 105.305 246.142 105.237 245.658 105.237C245.141 105.231 244.656 105.315 244.204 105.489C243.758 105.657 243.394 105.89 243.109 106.187C242.825 106.484 242.683 106.83 242.683 107.224C242.683 107.708 242.815 108.076 243.08 108.328C243.345 108.58 243.7 108.767 244.146 108.89C244.598 109.006 245.102 109.113 245.658 109.21C246.549 109.352 247.373 109.588 248.128 109.917C248.891 110.247 249.501 110.686 249.96 111.235C250.425 111.778 250.657 112.446 250.657 113.241C250.657 114.042 250.425 114.746 249.96 115.353C249.501 115.954 248.891 116.422 248.128 116.758C247.373 117.087 246.549 117.252 245.658 117.252ZM260.467 117.184C259.938 117.171 259.422 117.074 258.918 116.893C258.415 116.713 257.976 116.467 257.601 116.158C257.227 115.848 256.959 115.496 256.797 115.102L257.969 114.598C258.072 114.85 258.263 115.083 258.54 115.296C258.824 115.502 259.147 115.67 259.509 115.799C259.87 115.922 260.229 115.983 260.584 115.983C260.977 115.983 261.345 115.919 261.688 115.79C262.03 115.66 262.307 115.476 262.52 115.238C262.74 114.992 262.85 114.705 262.85 114.376C262.85 114.021 262.733 113.743 262.501 113.543C262.269 113.336 261.975 113.175 261.62 113.059C261.265 112.936 260.9 112.82 260.526 112.71C259.841 112.523 259.238 112.316 258.715 112.09C258.192 111.864 257.782 111.577 257.485 111.229C257.194 110.874 257.049 110.418 257.049 109.863C257.049 109.276 257.214 108.769 257.543 108.343C257.879 107.91 258.314 107.578 258.85 107.345C259.393 107.107 259.97 106.987 260.584 106.987C261.371 106.987 262.088 107.158 262.733 107.5C263.385 107.843 263.857 108.298 264.147 108.866L263.053 109.515C262.937 109.25 262.753 109.021 262.501 108.827C262.249 108.633 261.962 108.482 261.639 108.372C261.323 108.262 261 108.204 260.671 108.198C260.258 108.191 259.874 108.252 259.518 108.382C259.163 108.504 258.876 108.688 258.657 108.934C258.444 109.179 258.337 109.479 258.337 109.834C258.337 110.189 258.444 110.46 258.657 110.648C258.87 110.828 259.157 110.977 259.518 111.093C259.886 111.203 260.3 111.332 260.758 111.48C261.345 111.668 261.897 111.881 262.414 112.119C262.93 112.358 263.347 112.655 263.663 113.01C263.979 113.365 264.134 113.814 264.128 114.356C264.128 114.937 263.954 115.444 263.605 115.877C263.256 116.309 262.804 116.642 262.249 116.874C261.694 117.1 261.1 117.203 260.467 117.184ZM269.684 117H268.29L265.046 107.316H266.373L269.006 115.121L271.621 107.316H273.054L275.669 115.121L278.283 107.316H279.62L276.376 117H274.972L272.318 109.118L269.684 117ZM281.23 107.316H282.586V117H281.23V107.316ZM281.918 105.622C281.698 105.622 281.511 105.551 281.356 105.409C281.208 105.26 281.133 105.076 281.133 104.857C281.133 104.637 281.208 104.457 281.356 104.314C281.511 104.166 281.698 104.092 281.918 104.092C282.131 104.092 282.312 104.166 282.46 104.314C282.615 104.457 282.693 104.637 282.693 104.857C282.693 105.076 282.618 105.26 282.47 105.409C282.321 105.551 282.137 105.622 281.918 105.622ZM289.867 108.672H287.552L287.543 117H286.187L286.197 108.672H284.444V107.316H286.197L286.187 104.276H287.543L287.552 107.316H289.867V108.672ZM298.244 114.569L299.455 115.228C299.016 115.841 298.457 116.332 297.779 116.7C297.108 117.068 296.378 117.252 295.591 117.252C294.7 117.252 293.886 117.023 293.151 116.564C292.421 116.106 291.837 115.493 291.398 114.724C290.965 113.95 290.749 113.094 290.749 112.158C290.749 111.448 290.875 110.786 291.127 110.173C291.378 109.553 291.724 109.011 292.163 108.546C292.608 108.075 293.125 107.707 293.712 107.442C294.3 107.178 294.926 107.045 295.591 107.045C296.378 107.045 297.108 107.229 297.779 107.597C298.457 107.965 299.016 108.459 299.455 109.079L298.244 109.728C297.908 109.302 297.505 108.976 297.034 108.75C296.562 108.517 296.081 108.401 295.591 108.401C294.939 108.401 294.348 108.575 293.819 108.924C293.289 109.266 292.87 109.721 292.56 110.289C292.256 110.857 292.105 111.48 292.105 112.158C292.105 112.836 292.26 113.459 292.57 114.027C292.886 114.595 293.309 115.05 293.838 115.393C294.367 115.728 294.952 115.896 295.591 115.896C296.12 115.896 296.617 115.773 297.082 115.528C297.547 115.283 297.934 114.963 298.244 114.569ZM309.514 111.006V117H308.159V111.277C308.159 110.748 308.03 110.267 307.771 109.834C307.513 109.402 307.168 109.056 306.735 108.798C306.303 108.54 305.822 108.411 305.292 108.411C304.769 108.411 304.289 108.54 303.85 108.798C303.417 109.056 303.072 109.402 302.813 109.834C302.555 110.267 302.426 110.748 302.426 111.277V117H301.07V102.475H302.426V108.653C302.768 108.162 303.214 107.772 303.762 107.481C304.311 107.191 304.908 107.045 305.554 107.045C306.283 107.045 306.948 107.223 307.549 107.578C308.149 107.933 308.627 108.411 308.982 109.011C309.337 109.611 309.514 110.276 309.514 111.006Z" fill="white"/>
<g filter="(#filter0_d_1_23)">
<g clip-path="(#clip1_1_23)">
<rect x="164.799" y="161" width="154.402" height="334.332" rx="23.0574" fill="black" shape-rendering="crispEdges"/>
<rect width="154.402" height="26.3513" transform="translate(164.799 468.981)" fill="black"/>
<circle cx="238.5" cy="477.216" r="1.64696" fill="white"/>
<circle cx="245.088" cy="477.216" r="1.64696" fill="#5E6571"/>
<path d="M177.56 210.845C177.286 210.841 177.025 210.886 176.778 210.978C176.534 211.067 176.336 211.189 176.181 211.343C176.027 211.498 175.949 211.675 175.949 211.876C175.949 212.135 176.021 212.33 176.164 212.461C176.311 212.593 176.506 212.689 176.749 212.751C176.992 212.809 177.262 212.863 177.56 212.913C178.101 212.998 178.601 213.141 179.06 213.342C179.52 213.543 179.889 213.811 180.167 214.147C180.445 214.479 180.584 214.886 180.584 215.369C180.584 215.809 180.47 216.201 180.242 216.545C180.014 216.885 179.707 217.163 179.321 217.379C178.939 217.596 178.514 217.733 178.046 217.791V218.972H177.079V217.791C176.689 217.744 176.322 217.646 175.978 217.495C175.635 217.345 175.335 217.148 175.08 216.904C174.829 216.661 174.644 216.377 174.524 216.053L175.851 215.566C175.905 215.721 176.015 215.862 176.181 215.989C176.347 216.117 176.55 216.219 176.789 216.296C177.029 216.373 177.286 216.412 177.56 216.412C177.842 216.412 178.104 216.369 178.348 216.284C178.595 216.196 178.794 216.074 178.944 215.92C179.095 215.761 179.17 215.578 179.17 215.369C179.17 215.157 179.091 214.983 178.933 214.848C178.774 214.709 178.572 214.599 178.324 214.518C178.077 214.437 177.822 214.375 177.56 214.332C176.984 214.243 176.469 214.106 176.013 213.921C175.557 213.736 175.196 213.479 174.93 213.151C174.667 212.822 174.536 212.397 174.536 211.876C174.536 211.436 174.65 211.044 174.878 210.7C175.109 210.356 175.416 210.078 175.799 209.866C176.185 209.65 176.612 209.513 177.079 209.455V208.267H178.046V209.455C178.429 209.501 178.792 209.6 179.135 209.75C179.479 209.901 179.779 210.1 180.033 210.347C180.292 210.59 180.481 210.876 180.601 211.204L179.269 211.685C179.215 211.53 179.105 211.39 178.939 211.262C178.772 211.135 178.57 211.034 178.33 210.961C178.091 210.884 177.834 210.845 177.56 210.845Z" fill="white"/>
<path d="M187.704 216.727C187.243 216.727 186.845 216.614 186.51 216.389C186.175 216.164 185.917 215.862 185.736 215.483C185.557 215.102 185.468 214.679 185.468 214.215V210.855H186.045V214.215C186.045 214.567 186.109 214.889 186.238 215.183C186.367 215.477 186.555 215.711 186.802 215.887C187.049 216.063 187.35 216.15 187.704 216.15C188.066 216.15 188.37 216.063 188.614 215.887C188.861 215.708 189.048 215.472 189.174 215.179C189.3 214.885 189.363 214.564 189.363 214.215V210.855H189.94V214.215C189.94 214.564 189.887 214.89 189.783 215.195C189.682 215.497 189.533 215.763 189.339 215.994C189.146 216.225 188.912 216.404 188.634 216.533C188.36 216.662 188.05 216.727 187.704 216.727ZM192.942 216.727C192.634 216.727 192.337 216.679 192.048 216.583C191.763 216.487 191.513 216.349 191.299 216.171C191.085 215.993 190.934 215.78 190.846 215.533L191.386 215.331C191.446 215.501 191.556 215.648 191.715 215.772C191.877 215.892 192.065 215.986 192.279 216.052C192.496 216.117 192.717 216.15 192.942 216.15C193.205 216.15 193.451 216.106 193.679 216.019C193.907 215.931 194.091 215.809 194.231 215.652C194.371 215.493 194.441 215.306 194.441 215.092C194.441 214.875 194.368 214.697 194.222 214.557C194.077 214.417 193.889 214.307 193.658 214.228C193.431 214.145 193.192 214.082 192.942 214.038C192.549 213.97 192.197 213.876 191.884 213.758C191.574 213.64 191.328 213.474 191.147 213.26C190.966 213.043 190.875 212.758 190.875 212.404C190.875 212.071 190.971 211.783 191.163 211.539C191.355 211.295 191.608 211.105 191.921 210.971C192.236 210.836 192.577 210.769 192.942 210.769C193.241 210.769 193.533 210.816 193.819 210.909C194.104 211.002 194.356 211.138 194.572 211.317C194.792 211.495 194.95 211.713 195.046 211.971L194.498 212.169C194.438 211.996 194.327 211.849 194.165 211.728C194.006 211.605 193.819 211.511 193.605 211.448C193.391 211.382 193.17 211.35 192.942 211.35C192.681 211.347 192.437 211.391 192.209 211.481C191.984 211.569 191.801 211.693 191.661 211.852C191.521 212.008 191.451 212.192 191.451 212.404C191.451 212.651 191.516 212.841 191.645 212.976C191.777 213.108 191.955 213.206 192.18 213.272C192.405 213.338 192.659 213.397 192.942 213.449C193.31 213.513 193.651 213.611 193.967 213.746C194.283 213.878 194.537 214.055 194.729 214.277C194.921 214.497 195.017 214.768 195.017 215.092C195.017 215.422 194.921 215.71 194.729 215.957C194.537 216.201 194.283 216.391 193.967 216.525C193.654 216.66 193.312 216.727 192.942 216.727ZM196.011 216.62V210.855H197.917C198.315 210.855 198.689 210.931 199.037 211.082C199.386 211.23 199.692 211.437 199.955 211.704C200.219 211.967 200.425 212.273 200.573 212.622C200.724 212.968 200.799 213.34 200.799 213.738C200.799 214.136 200.724 214.509 200.573 214.858C200.425 215.203 200.219 215.509 199.955 215.776C199.692 216.039 199.386 216.246 199.037 216.397C198.689 216.546 198.315 216.62 197.917 216.62H196.011ZM196.587 216.043H197.917C198.236 216.043 198.534 215.984 198.811 215.866C199.091 215.746 199.336 215.579 199.548 215.368C199.759 215.157 199.924 214.912 200.042 214.635C200.163 214.355 200.223 214.056 200.223 213.738C200.223 213.419 200.163 213.121 200.042 212.844C199.924 212.564 199.758 212.318 199.544 212.107C199.332 211.896 199.088 211.731 198.811 211.613C198.534 211.492 198.236 211.432 197.917 211.432H196.587V216.043Z" fill="white"/>
<path d="M236.198 205.289C235.293 205.28 234.45 205.434 233.668 205.75C232.895 206.057 232.267 206.488 231.784 207.041C231.309 207.594 231.072 208.24 231.072 208.978C231.072 209.83 231.296 210.489 231.744 210.954C232.192 211.42 232.803 211.771 233.576 212.008C234.349 212.237 235.223 212.443 236.198 212.628C237.357 212.83 238.433 213.141 239.426 213.563C240.427 213.976 241.231 214.529 241.837 215.223C242.452 215.908 242.759 216.76 242.759 217.779C242.759 218.763 242.487 219.624 241.942 220.362C241.398 221.099 240.673 221.688 239.768 222.127C238.863 222.558 237.871 222.808 236.79 222.878V225.513H235.631V222.878C234.717 222.825 233.843 222.645 233.009 222.338C232.183 222.022 231.463 221.596 230.848 221.06C230.242 220.515 229.807 219.879 229.544 219.149L230.875 218.649C231.085 219.246 231.467 219.76 232.021 220.19C232.583 220.612 233.229 220.933 233.958 221.152C234.695 221.372 235.442 221.482 236.198 221.482C237.093 221.482 237.932 221.328 238.714 221.02C239.496 220.713 240.128 220.287 240.611 219.742C241.094 219.189 241.336 218.535 241.336 217.779C241.336 217.024 241.086 216.405 240.585 215.921C240.084 215.43 239.439 215.043 238.648 214.762C237.866 214.472 237.05 214.248 236.198 214.09C234.95 213.87 233.835 213.581 232.851 213.22C231.867 212.851 231.085 212.333 230.506 211.666C229.935 210.998 229.649 210.102 229.649 208.978C229.649 208.003 229.922 207.146 230.466 206.409C231.019 205.671 231.749 205.087 232.653 204.656C233.567 204.217 234.559 203.962 235.631 203.892V201.165H236.79V203.892C237.66 203.945 238.503 204.125 239.32 204.432C240.146 204.74 240.87 205.161 241.494 205.697C242.127 206.233 242.583 206.879 242.864 207.634L241.507 208.121C241.297 207.515 240.914 207.001 240.361 206.58C239.808 206.158 239.162 205.838 238.424 205.618C237.695 205.398 236.953 205.289 236.198 205.289ZM246.855 222.562V205.539H244.984L245.406 204.116H248.278V222.562H246.855ZM257.267 222.905C256.16 222.905 255.154 222.637 254.25 222.101C253.354 221.565 252.638 220.845 252.102 219.94C251.575 219.035 251.311 218.038 251.311 216.949H252.734C252.734 217.784 252.936 218.543 253.341 219.229C253.753 219.914 254.302 220.463 254.987 220.875C255.673 221.28 256.432 221.482 257.267 221.482C258.093 221.482 258.848 221.28 259.533 220.875C260.218 220.463 260.767 219.914 261.18 219.229C261.593 218.543 261.799 217.784 261.799 216.949C261.799 216.123 261.597 215.368 261.193 214.683C260.798 213.989 260.249 213.44 259.546 213.036C258.844 212.623 258.031 212.417 257.109 212.417H252.708L254.381 204.116H262.88V205.539H255.528L254.46 210.994H256.858C258.114 211.003 259.217 211.262 260.165 211.771C261.123 212.272 261.87 212.97 262.405 213.866C262.95 214.753 263.222 215.781 263.222 216.949C263.222 217.766 263.069 218.535 262.761 219.255C262.454 219.975 262.023 220.612 261.47 221.165C260.925 221.71 260.293 222.136 259.573 222.443C258.861 222.751 258.093 222.905 257.267 222.905ZM271.829 222.905C270.713 222.905 269.721 222.659 268.851 222.167C267.981 221.666 267.244 220.976 266.637 220.098C266.031 219.22 265.57 218.205 265.254 217.055C264.947 215.895 264.793 214.657 264.793 213.339C264.793 212.021 264.947 210.783 265.254 209.623C265.57 208.464 266.031 207.449 266.637 206.58C267.244 205.701 267.981 205.016 268.851 204.524C269.721 204.024 270.713 203.773 271.829 203.773C272.935 203.773 273.924 204.024 274.793 204.524C275.663 205.016 276.396 205.701 276.993 206.58C277.591 207.449 278.048 208.464 278.364 209.623C278.68 210.783 278.838 212.021 278.838 213.339C278.838 214.657 278.68 215.895 278.364 217.055C278.048 218.205 277.591 219.22 276.993 220.098C276.396 220.976 275.663 221.666 274.793 222.167C273.924 222.659 272.935 222.905 271.829 222.905ZM271.829 221.482C273.058 221.482 274.09 221.108 274.925 220.362C275.768 219.615 276.401 218.627 276.822 217.397C277.253 216.159 277.468 214.806 277.468 213.339C277.468 211.793 277.248 210.41 276.809 209.189C276.37 207.959 275.729 206.988 274.885 206.277C274.051 205.557 273.032 205.196 271.829 205.196C270.88 205.196 270.05 205.416 269.338 205.855C268.627 206.286 268.034 206.879 267.56 207.634C267.094 208.389 266.743 209.259 266.506 210.243C266.277 211.218 266.163 212.25 266.163 213.339C266.163 214.815 266.378 216.172 266.809 217.41C267.239 218.64 267.876 219.628 268.719 220.375C269.562 221.113 270.599 221.482 271.829 221.482ZM287.295 222.905C286.179 222.905 285.186 222.659 284.317 222.167C283.447 221.666 282.709 220.976 282.103 220.098C281.497 219.22 281.036 218.205 280.72 217.055C280.413 215.895 280.259 214.657 280.259 213.339C280.259 212.021 280.413 210.783 280.72 209.623C281.036 208.464 281.497 207.449 282.103 206.58C282.709 205.701 283.447 205.016 284.317 204.524C285.186 204.024 286.179 203.773 287.295 203.773C288.401 203.773 289.39 204.024 290.259 204.524C291.129 205.016 291.862 205.701 292.459 206.58C293.057 207.449 293.514 208.464 293.83 209.623C294.146 210.783 294.304 212.021 294.304 213.339C294.304 214.657 294.146 215.895 293.83 217.055C293.514 218.205 293.057 219.22 292.459 220.098C291.862 220.976 291.129 221.666 290.259 222.167C289.39 222.659 288.401 222.905 287.295 222.905ZM287.295 221.482C288.524 221.482 289.556 221.108 290.391 220.362C291.234 219.615 291.867 218.627 292.288 217.397C292.719 216.159 292.934 214.806 292.934 213.339C292.934 211.793 292.714 210.41 292.275 209.189C291.836 207.959 291.195 206.988 290.351 206.277C289.517 205.557 288.498 205.196 287.295 205.196C286.346 205.196 285.516 205.416 284.804 205.855C284.093 206.286 283.5 206.879 283.026 207.634C282.56 208.389 282.209 209.259 281.972 210.243C281.743 211.218 281.629 212.25 281.629 213.339C281.629 214.815 281.844 216.172 282.275 217.41C282.705 218.64 283.342 219.628 284.185 220.375C285.028 221.113 286.065 221.482 287.295 221.482ZM302.761 222.905C301.645 222.905 300.652 222.659 299.783 222.167C298.913 221.666 298.175 220.976 297.569 220.098C296.963 219.22 296.502 218.205 296.186 217.055C295.878 215.895 295.725 214.657 295.725 213.339C295.725 212.021 295.878 210.783 296.186 209.623C296.502 208.464 296.963 207.449 297.569 206.58C298.175 205.701 298.913 205.016 299.783 204.524C300.652 204.024 301.645 203.773 302.761 203.773C303.867 203.773 304.855 204.024 305.725 204.524C306.595 205.016 307.328 205.701 307.925 206.58C308.523 207.449 308.979 208.464 309.296 209.623C309.612 210.783 309.77 212.021 309.77 213.339C309.77 214.657 309.612 215.895 309.296 217.055C308.979 218.205 308.523 219.22 307.925 220.098C307.328 220.976 306.595 221.666 305.725 222.167C304.855 222.659 303.867 222.905 302.761 222.905ZM302.761 221.482C303.99 221.482 305.022 221.108 305.857 220.362C306.7 219.615 307.333 218.627 307.754 217.397C308.185 216.159 308.4 214.806 308.4 213.339C308.4 211.793 308.18 210.41 307.741 209.189C307.302 207.959 306.661 206.988 305.817 206.277C304.983 205.557 303.964 205.196 302.761 205.196C301.812 205.196 300.982 205.416 300.27 205.855C299.559 206.286 298.966 206.879 298.492 207.634C298.026 208.389 297.675 209.259 297.438 210.243C297.209 211.218 297.095 212.25 297.095 213.339C297.095 214.815 297.31 216.172 297.741 217.41C298.171 218.64 298.808 219.628 299.651 220.375C300.494 221.113 301.531 221.482 302.761 221.482Z" fill="white"/>
<rect x="311.79" y="202.091" width="0.823479" height="23.0574" rx="0.411739" fill="#2E75FF"/>
<path fill-rule="evenodd" clip-rule="evenodd" d="M176.413 247.229C176.401 247.229 176.363 247.229 176.334 247.286C176.297 247.358 173.373 252.966 172.809 254.049H174.102L174.886 252.477C174.918 252.412 174.981 252.375 175.045 252.374L175.047 252.374C175.049 252.374 175.05 252.373 175.051 252.373H179.787C179.72 252.248 179.635 252.089 179.532 251.897L179.506 251.848L179.506 251.848L179.505 251.846C179.377 251.607 179.235 251.341 179.157 251.195L175.974 251.199H175.974L175.973 251.199L175.892 251.199H175.891H175.891L175.891 251.199C175.876 251.199 175.863 251.197 175.849 251.194C175.847 251.193 175.845 251.192 175.843 251.192L175.838 251.19C175.828 251.187 175.818 251.182 175.808 251.177L175.805 251.176C175.804 251.175 175.803 251.175 175.802 251.174C175.8 251.174 175.8 251.173 175.799 251.172C175.798 251.171 175.797 251.17 175.796 251.17C175.79 251.166 175.785 251.162 175.78 251.158L175.779 251.157L175.779 251.157C175.775 251.154 175.771 251.15 175.766 251.146C175.763 251.143 175.76 251.139 175.757 251.135L175.757 251.135L175.757 251.135L175.754 251.132C175.75 251.127 175.746 251.123 175.743 251.118C175.74 251.113 175.738 251.109 175.735 251.105L175.734 251.102C175.731 251.096 175.728 251.091 175.725 251.085C175.723 251.08 175.721 251.074 175.719 251.069L175.719 251.067L175.718 251.066C175.717 251.06 175.715 251.055 175.713 251.049C175.712 251.043 175.711 251.037 175.71 251.031C175.709 251.024 175.709 251.017 175.708 251.01L175.708 251.007L175.708 251.007C175.708 251.006 175.708 251.004 175.708 251.003C175.708 251.001 175.708 250.999 175.708 250.997L175.709 250.993C175.709 250.986 175.71 250.978 175.711 250.971C175.712 250.965 175.713 250.959 175.714 250.953C175.716 250.947 175.718 250.941 175.72 250.934C175.722 250.928 175.724 250.922 175.727 250.916L175.729 250.912C175.729 250.91 175.73 250.908 175.731 250.906L177.652 247.23L176.413 247.229ZM180.449 249.54L181.071 250.721H182.382C182.285 250.552 182.117 250.255 181.976 250.007L181.742 249.594C181.724 249.563 181.686 249.54 181.654 249.54L180.449 249.54ZM178.762 257.935C178.774 257.935 178.812 257.935 178.841 257.879L182.367 251.115H181.073L180.289 252.665C180.269 252.704 180.237 252.732 180.202 252.749C180.198 252.751 180.194 252.752 180.19 252.754C180.182 252.757 180.175 252.76 180.167 252.762C180.157 252.765 180.146 252.766 180.135 252.766C180.134 252.767 180.133 252.767 180.132 252.767C180.13 252.767 180.129 252.768 180.127 252.768L180.126 252.767L180.125 252.768H175.37L176.019 253.969L179.284 253.965H179.284C179.349 253.965 179.409 254.002 179.442 254.062C179.475 254.122 179.476 254.197 179.444 254.258L177.529 257.934L178.269 257.935H178.762ZM177.209 257.739L177.055 257.467C176.857 257.117 176.603 256.67 176.574 256.621C176.565 256.604 176.56 256.564 176.58 256.525C176.626 256.437 177.493 254.768 177.704 254.361L178.97 254.359L177.209 257.739ZM174.422 254.243L175.051 255.438C175.186 255.168 175.495 254.547 175.692 254.149L175.056 252.972L174.422 254.243ZM174.206 255.624L173.521 255.624H173.521C173.489 255.624 173.451 255.601 173.434 255.57L173.229 255.209C173.083 254.952 172.897 254.624 172.794 254.443H174.105L174.727 255.624L174.206 255.624ZM177.968 247.43L178.083 247.632C178.285 247.988 178.57 248.491 178.601 248.543C178.61 248.56 178.615 248.6 178.594 248.639L177.47 250.803L176.205 250.805L177.968 247.43ZM180.753 250.92L180.124 249.724C180.008 249.95 179.77 250.416 179.603 250.743C179.551 250.845 179.506 250.933 179.474 250.996C179.546 251.131 179.675 251.371 179.851 251.701C179.94 251.868 180.035 252.046 180.111 252.188L180.753 250.92Z" fill="#757575"/>
<path d="M189.071 249.818H189.647V255.582H189.071V252.782H186.045V255.582H185.468V249.818H186.045V252.206H189.071V249.818ZM190.639 255.582V249.818H191.265L194.308 254.54V249.818H194.884V255.582H194.262L191.215 250.859V255.582H190.639ZM197.888 255.689C197.58 255.689 197.282 255.641 196.994 255.545C196.709 255.449 196.459 255.312 196.245 255.133C196.031 254.955 195.88 254.742 195.792 254.495L196.331 254.293C196.392 254.463 196.501 254.61 196.661 254.734C196.823 254.855 197.011 254.948 197.225 255.014C197.442 255.08 197.663 255.113 197.888 255.113C198.151 255.113 198.397 255.069 198.625 254.981C198.852 254.893 199.036 254.771 199.176 254.614C199.316 254.455 199.386 254.269 199.386 254.054C199.386 253.838 199.314 253.659 199.168 253.519C199.023 253.379 198.835 253.269 198.604 253.19C198.376 253.107 198.137 253.044 197.888 253C197.495 252.932 197.142 252.838 196.829 252.72C196.519 252.602 196.274 252.436 196.092 252.222C195.911 252.005 195.821 251.72 195.821 251.366C195.821 251.034 195.917 250.745 196.109 250.501C196.301 250.257 196.554 250.067 196.866 249.933C197.182 249.798 197.523 249.731 197.888 249.731C198.187 249.731 198.479 249.778 198.765 249.871C199.05 249.965 199.301 250.1 199.518 250.279C199.738 250.457 199.896 250.675 199.992 250.933L199.444 251.131C199.384 250.958 199.272 250.811 199.11 250.691C198.951 250.567 198.765 250.474 198.55 250.411C198.336 250.345 198.115 250.312 197.888 250.312C197.627 250.309 197.383 250.353 197.155 250.444C196.93 250.531 196.747 250.655 196.607 250.814C196.467 250.971 196.397 251.154 196.397 251.366C196.397 251.613 196.462 251.804 196.591 251.938C196.722 252.07 196.901 252.169 197.126 252.235C197.351 252.3 197.605 252.359 197.888 252.412C198.255 252.475 198.597 252.574 198.913 252.708C199.228 252.84 199.482 253.017 199.675 253.239C199.867 253.459 199.963 253.731 199.963 254.054C199.963 254.384 199.867 254.672 199.675 254.919C199.482 255.163 199.228 255.353 198.913 255.487C198.6 255.622 198.258 255.689 197.888 255.689Z" fill="#757575"/>
<path d="M226.431 259.839C225.588 259.839 224.85 259.658 224.217 259.295C223.591 258.927 223.104 258.436 222.755 257.823C222.406 257.21 222.231 256.535 222.231 255.797H223.298C223.298 256.344 223.423 256.845 223.674 257.299C223.924 257.747 224.283 258.106 224.751 258.376C225.219 258.64 225.779 258.772 226.431 258.772C226.971 258.772 227.478 258.64 227.953 258.376C228.433 258.106 228.822 257.747 229.119 257.299C229.422 256.845 229.573 256.344 229.573 255.797C229.573 255.125 229.405 254.565 229.069 254.117C228.733 253.669 228.272 253.333 227.686 253.109C227.106 252.886 226.444 252.774 225.7 252.774V251.855C226.734 251.855 227.567 251.627 228.2 251.173C228.832 250.718 229.148 250.056 229.148 249.186C229.148 248.706 229.013 248.267 228.743 247.872C228.48 247.47 228.137 247.151 227.715 246.914C227.294 246.67 226.843 246.548 226.362 246.548C225.874 246.548 225.413 246.67 224.978 246.914C224.543 247.151 224.188 247.47 223.911 247.872C223.641 248.267 223.506 248.706 223.506 249.186H222.439C222.439 248.679 222.544 248.202 222.755 247.754C222.966 247.306 223.255 246.914 223.624 246.578C223.993 246.235 224.412 245.968 224.879 245.777C225.347 245.58 225.838 245.481 226.352 245.481C227.03 245.481 227.663 245.649 228.249 245.985C228.835 246.321 229.31 246.769 229.672 247.329C230.034 247.889 230.215 248.508 230.215 249.186C230.215 249.911 230.024 250.55 229.642 251.103C229.267 251.657 228.763 252.049 228.13 252.279C228.677 252.457 229.135 252.721 229.504 253.07C229.88 253.419 230.163 253.824 230.354 254.285C230.545 254.747 230.64 255.251 230.64 255.797C230.64 256.535 230.443 257.21 230.048 257.823C229.659 258.436 229.145 258.927 228.506 259.295C227.867 259.658 227.175 259.839 226.431 259.839ZM234.897 259.582L238.078 254.088C237.367 254.417 236.642 254.549 235.904 254.483C235.173 254.417 234.498 254.19 233.879 253.801C233.266 253.406 232.769 252.889 232.387 252.25C232.011 251.604 231.823 250.873 231.823 250.056C231.823 249.43 231.942 248.841 232.179 248.287C232.416 247.734 232.742 247.25 233.157 246.835C233.572 246.413 234.053 246.084 234.6 245.846C235.153 245.609 235.743 245.491 236.369 245.491C237.199 245.491 237.957 245.698 238.642 246.113C239.333 246.522 239.883 247.072 240.292 247.763C240.707 248.455 240.914 249.219 240.914 250.056C240.914 250.55 240.855 250.962 240.737 251.291C240.618 251.621 240.443 252.003 240.213 252.438L236.122 259.582H234.897ZM236.349 253.544C237.021 253.544 237.621 253.383 238.148 253.06C238.681 252.737 239.1 252.312 239.403 251.785C239.712 251.252 239.867 250.679 239.867 250.066C239.867 249.401 239.706 248.804 239.383 248.277C239.06 247.744 238.632 247.322 238.098 247.012C237.565 246.703 236.988 246.548 236.369 246.548C235.69 246.548 235.084 246.713 234.551 247.042C234.024 247.365 233.609 247.796 233.306 248.337C233.009 248.87 232.861 249.447 232.861 250.066C232.861 250.705 233.016 251.288 233.325 251.815C233.642 252.342 234.063 252.764 234.59 253.08C235.117 253.389 235.704 253.544 236.349 253.544ZM246.726 259.839C245.863 259.839 245.072 259.625 244.354 259.197C243.636 258.768 243.063 258.195 242.635 257.477C242.206 256.753 241.992 255.955 241.992 255.086C241.992 254.565 242.052 254.131 242.17 253.781C242.295 253.432 242.473 253.034 242.704 252.586L246.637 245.748H247.882L244.927 250.876C245.52 250.593 246.123 250.448 246.735 250.441C247.355 250.428 247.948 250.534 248.514 250.758C249.081 250.982 249.585 251.301 250.026 251.716C250.474 252.131 250.826 252.625 251.083 253.198C251.347 253.772 251.479 254.401 251.479 255.086C251.479 255.738 251.354 256.354 251.103 256.934C250.859 257.507 250.52 258.011 250.085 258.446C249.651 258.88 249.143 259.223 248.564 259.473C247.99 259.717 247.378 259.839 246.726 259.839ZM246.726 258.772C247.437 258.772 248.069 258.6 248.623 258.258C249.183 257.909 249.621 257.454 249.937 256.894C250.253 256.328 250.411 255.722 250.411 255.076C250.411 254.404 250.247 253.791 249.917 253.238C249.588 252.685 249.143 252.243 248.583 251.914C248.03 251.584 247.417 251.42 246.745 251.42C246.047 251.42 245.418 251.591 244.858 251.934C244.305 252.27 243.866 252.714 243.544 253.268C243.221 253.821 243.059 254.424 243.059 255.076C243.059 255.774 243.227 256.403 243.563 256.963C243.906 257.517 244.354 257.958 244.907 258.288C245.467 258.61 246.073 258.772 246.726 258.772ZM252.865 260.689L253.478 257.349H254.545L253.577 260.689H252.865ZM260.861 259.839C260.064 259.839 259.336 259.658 258.677 259.295C258.018 258.933 257.491 258.449 257.096 257.843C256.707 257.23 256.513 256.555 256.513 255.817C256.513 255.04 256.737 254.338 257.185 253.712C257.633 253.086 258.206 252.615 258.904 252.299C258.318 252.003 257.831 251.578 257.442 251.024C257.06 250.464 256.869 249.849 256.869 249.177C256.869 248.498 257.05 247.882 257.412 247.329C257.775 246.769 258.255 246.324 258.855 245.995C259.461 245.659 260.13 245.491 260.861 245.491C261.592 245.491 262.261 245.659 262.867 245.995C263.473 246.324 263.957 246.769 264.32 247.329C264.682 247.882 264.863 248.498 264.863 249.177C264.863 249.849 264.672 250.464 264.29 251.024C263.908 251.578 263.42 252.003 262.827 252.299C263.539 252.615 264.115 253.086 264.557 253.712C264.998 254.338 265.219 255.04 265.219 255.817C265.219 256.555 265.021 257.23 264.626 257.843C264.237 258.449 263.713 258.933 263.055 259.295C262.396 259.658 261.665 259.839 260.861 259.839ZM260.861 258.772C261.46 258.772 262.001 258.64 262.482 258.376C262.969 258.106 263.354 257.747 263.638 257.299C263.928 256.851 264.073 256.357 264.073 255.817C264.073 255.27 263.928 254.773 263.638 254.325C263.354 253.877 262.969 253.521 262.482 253.258C262.001 252.994 261.46 252.862 260.861 252.862C260.281 252.862 259.748 252.994 259.26 253.258C258.773 253.521 258.384 253.877 258.094 254.325C257.804 254.773 257.659 255.27 257.659 255.817C257.659 256.357 257.804 256.851 258.094 257.299C258.384 257.747 258.773 258.106 259.26 258.376C259.748 258.64 260.281 258.772 260.861 258.772ZM260.861 251.795C261.395 251.795 261.875 251.677 262.304 251.439C262.732 251.202 263.074 250.886 263.331 250.491C263.588 250.096 263.717 249.657 263.717 249.177C263.717 248.689 263.588 248.248 263.331 247.852C263.074 247.457 262.732 247.144 262.304 246.914C261.875 246.676 261.395 246.558 260.861 246.558C260.341 246.558 259.863 246.676 259.428 246.914C259 247.144 258.657 247.457 258.4 247.852C258.143 248.248 258.015 248.689 258.015 249.177C258.015 249.657 258.143 250.096 258.4 250.491C258.657 250.886 259 251.202 259.428 251.439C259.863 251.677 260.341 251.795 260.861 251.795ZM266.8 259.582V258.643C267.38 258.09 267.999 257.497 268.658 256.865C269.323 256.232 269.975 255.587 270.614 254.928C271.26 254.262 271.843 253.61 272.363 252.971C272.89 252.332 273.312 251.726 273.628 251.153C273.945 250.58 274.103 250.066 274.103 249.611C274.103 249.058 273.968 248.551 273.697 248.09C273.427 247.622 273.062 247.25 272.601 246.973C272.146 246.696 271.642 246.558 271.089 246.558C270.529 246.558 270.018 246.696 269.557 246.973C269.096 247.25 268.727 247.622 268.45 248.09C268.18 248.551 268.045 249.058 268.045 249.611H266.978C266.978 248.847 267.162 248.155 267.531 247.536C267.907 246.91 268.404 246.413 269.023 246.044C269.649 245.675 270.338 245.491 271.089 245.491C271.84 245.491 272.522 245.678 273.134 246.054C273.753 246.423 274.248 246.92 274.616 247.546C274.985 248.165 275.17 248.854 275.17 249.611C275.17 250.092 275.032 250.626 274.755 251.212C274.485 251.799 274.119 252.411 273.658 253.05C273.203 253.689 272.693 254.332 272.126 254.977C271.56 255.623 270.977 256.249 270.377 256.855C269.778 257.454 269.208 258.008 268.668 258.515H275.427V259.582H266.8ZM281.764 259.839C280.934 259.839 280.179 259.638 279.501 259.236C278.829 258.834 278.292 258.294 277.89 257.616C277.495 256.937 277.297 256.189 277.297 255.372H278.364C278.364 255.998 278.516 256.568 278.819 257.082C279.128 257.596 279.54 258.008 280.054 258.317C280.568 258.62 281.138 258.772 281.764 258.772C282.383 258.772 282.949 258.62 283.463 258.317C283.977 258.008 284.389 257.596 284.699 257.082C285.008 256.568 285.163 255.998 285.163 255.372C285.163 254.753 285.011 254.187 284.708 253.673C284.412 253.152 284 252.741 283.473 252.438C282.946 252.128 282.337 251.973 281.645 251.973H278.345L279.6 245.748H285.973V246.815H280.459L279.659 250.906H281.457C282.399 250.912 283.226 251.107 283.938 251.489C284.656 251.864 285.216 252.388 285.618 253.06C286.026 253.725 286.23 254.496 286.23 255.372C286.23 255.985 286.115 256.562 285.884 257.102C285.654 257.642 285.331 258.12 284.916 258.535C284.507 258.943 284.033 259.263 283.493 259.493C282.959 259.724 282.383 259.839 281.764 259.839ZM288.846 259.839C288.668 259.839 288.517 259.773 288.392 259.641C288.267 259.516 288.204 259.361 288.204 259.177C288.204 259.006 288.267 258.857 288.392 258.732C288.517 258.6 288.668 258.535 288.846 258.535C289.031 258.535 289.186 258.6 289.311 258.732C289.443 258.857 289.508 259.006 289.508 259.177C289.508 259.361 289.443 259.516 289.311 259.641C289.186 259.773 289.031 259.839 288.846 259.839ZM295.487 259.839C294.644 259.839 293.906 259.658 293.274 259.295C292.648 258.927 292.16 258.436 291.811 257.823C291.462 257.21 291.287 256.535 291.287 255.797H292.355C292.355 256.344 292.48 256.845 292.73 257.299C292.981 257.747 293.34 258.106 293.807 258.376C294.275 258.64 294.835 258.772 295.487 258.772C296.027 258.772 296.535 258.64 297.009 258.376C297.49 258.106 297.879 257.747 298.175 257.299C298.478 256.845 298.63 256.344 298.63 255.797C298.63 255.125 298.462 254.565 298.126 254.117C297.79 253.669 297.329 253.333 296.742 253.109C296.162 252.886 295.5 252.774 294.756 252.774V251.855C295.79 251.855 296.624 251.627 297.256 251.173C297.888 250.718 298.205 250.056 298.205 249.186C298.205 248.706 298.07 248.267 297.8 247.872C297.536 247.47 297.193 247.151 296.772 246.914C296.35 246.67 295.899 246.548 295.418 246.548C294.931 246.548 294.469 246.67 294.035 246.914C293.6 247.151 293.244 247.47 292.967 247.872C292.697 248.267 292.562 248.706 292.562 249.186H291.495C291.495 248.679 291.6 248.202 291.811 247.754C292.022 247.306 292.312 246.914 292.681 246.578C293.05 246.235 293.468 245.968 293.936 245.777C294.404 245.58 294.894 245.481 295.408 245.481C296.087 245.481 296.719 245.649 297.305 245.985C297.892 246.321 298.366 246.769 298.728 247.329C299.091 247.889 299.272 248.508 299.272 249.186C299.272 249.911 299.081 250.55 298.699 251.103C298.323 251.657 297.819 252.049 297.187 252.279C297.734 252.457 298.192 252.721 298.56 253.07C298.936 253.419 299.219 253.824 299.41 254.285C299.601 254.747 299.697 255.251 299.697 255.797C299.697 256.535 299.499 257.21 299.104 257.823C298.715 258.436 298.201 258.927 297.562 259.295C296.923 259.658 296.232 259.839 295.487 259.839ZM303.953 259.582L307.135 254.088C306.423 254.417 305.699 254.549 304.961 254.483C304.23 254.417 303.554 254.19 302.935 253.801C302.322 253.406 301.825 252.889 301.443 252.25C301.067 251.604 300.88 250.873 300.88 250.056C300.88 249.43 300.998 248.841 301.235 248.287C301.473 247.734 301.799 247.25 302.214 246.835C302.629 246.413 303.11 246.084 303.656 245.846C304.21 245.609 304.799 245.491 305.425 245.491C306.255 245.491 307.013 245.698 307.698 246.113C308.39 246.522 308.94 247.072 309.348 247.763C309.763 248.455 309.971 249.219 309.971 250.056C309.971 250.55 309.912 250.962 309.793 251.291C309.674 251.621 309.5 252.003 309.269 252.438L305.178 259.582H303.953ZM305.406 253.544C306.078 253.544 306.677 253.383 307.204 253.06C307.738 252.737 308.156 252.312 308.459 251.785C308.769 251.252 308.923 250.679 308.923 250.066C308.923 249.401 308.762 248.804 308.439 248.277C308.116 247.744 307.688 247.322 307.155 247.012C306.621 246.703 306.045 246.548 305.425 246.548C304.747 246.548 304.141 246.713 303.607 247.042C303.08 247.365 302.665 247.796 302.362 248.337C302.066 248.87 301.917 249.447 301.917 250.066C301.917 250.705 302.072 251.288 302.382 251.815C302.698 252.342 303.12 252.764 303.647 253.08C304.174 253.389 304.76 253.544 305.406 253.544Z" fill="#757575"/>
<rect x="171.387" y="292.785" width="32.9392" height="32.9392" rx="16.4696" fill="#1F1F1F"/>
<path d="M185.351 313.666L190.259 305.155H184.626V304.443H191.082V305.155L186.161 313.666H185.351Z" fill="white"/>
<rect x="207.482" y="292.785" width="32.9392" height="32.9392" rx="16.4696" fill="#1F1F1F"/>
<path d="M223.949 313.838C223.417 313.838 222.932 313.717 222.493 313.475C222.054 313.234 221.702 312.911 221.439 312.507C221.18 312.098 221.05 311.648 221.05 311.156C221.05 310.638 221.199 310.17 221.498 309.753C221.797 309.336 222.179 309.022 222.644 308.811C222.253 308.613 221.928 308.33 221.669 307.961C221.415 307.588 221.287 307.177 221.287 306.729C221.287 306.277 221.408 305.866 221.649 305.497C221.891 305.124 222.212 304.828 222.611 304.608C223.015 304.384 223.461 304.272 223.949 304.272C224.436 304.272 224.882 304.384 225.286 304.608C225.69 304.828 226.013 305.124 226.254 305.497C226.496 305.866 226.617 306.277 226.617 306.729C226.617 307.177 226.489 307.588 226.235 307.961C225.98 308.33 225.655 308.613 225.26 308.811C225.734 309.022 226.118 309.336 226.412 309.753C226.707 310.17 226.854 310.638 226.854 311.156C226.854 311.648 226.722 312.098 226.459 312.507C226.199 312.911 225.85 313.234 225.411 313.475C224.972 313.717 224.484 313.838 223.949 313.838ZM223.949 313.126C224.348 313.126 224.708 313.038 225.029 312.863C225.354 312.682 225.611 312.443 225.8 312.144C225.993 311.846 226.09 311.516 226.09 311.156C226.09 310.792 225.993 310.46 225.8 310.162C225.611 309.863 225.354 309.626 225.029 309.45C224.708 309.274 224.348 309.187 223.949 309.187C223.562 309.187 223.206 309.274 222.881 309.45C222.556 309.626 222.297 309.863 222.104 310.162C221.911 310.46 221.814 310.792 221.814 311.156C221.814 311.516 221.911 311.846 222.104 312.144C222.297 312.443 222.556 312.682 222.881 312.863C223.206 313.038 223.562 313.126 223.949 313.126ZM223.949 308.475C224.304 308.475 224.625 308.396 224.91 308.238C225.196 308.08 225.424 307.869 225.596 307.605C225.767 307.342 225.853 307.05 225.853 306.729C225.853 306.404 225.767 306.11 225.596 305.846C225.424 305.583 225.196 305.374 224.91 305.221C224.625 305.063 224.304 304.983 223.949 304.983C223.602 304.983 223.283 305.063 222.993 305.221C222.708 305.374 222.48 305.583 222.308 305.846C222.137 306.11 222.051 306.404 222.051 306.729C222.051 307.05 222.137 307.342 222.308 307.605C222.48 307.869 222.708 308.08 222.993 308.238C223.283 308.396 223.602 308.475 223.949 308.475Z" fill="white"/>
<rect x="243.578" y="292.785" width="32.9392" height="32.9392" rx="16.4696" fill="#1F1F1F"/>
<path d="M259.069 313.666L261.191 310.003C260.716 310.223 260.233 310.311 259.741 310.267C259.254 310.223 258.804 310.071 258.391 309.812C257.982 309.549 257.651 309.204 257.396 308.778C257.146 308.348 257.021 307.86 257.021 307.316C257.021 306.898 257.1 306.505 257.258 306.136C257.416 305.767 257.633 305.445 257.91 305.168C258.187 304.887 258.507 304.667 258.872 304.509C259.241 304.351 259.634 304.272 260.051 304.272C260.604 304.272 261.109 304.41 261.566 304.687C262.027 304.959 262.394 305.326 262.666 305.787C262.943 306.248 263.081 306.758 263.081 307.316C263.081 307.645 263.042 307.919 262.963 308.139C262.884 308.359 262.767 308.613 262.614 308.903L259.886 313.666H259.069ZM260.038 309.641C260.486 309.641 260.886 309.533 261.237 309.318C261.593 309.103 261.871 308.82 262.074 308.468C262.28 308.113 262.383 307.731 262.383 307.322C262.383 306.879 262.276 306.481 262.06 306.13C261.845 305.774 261.56 305.493 261.204 305.287C260.848 305.08 260.464 304.977 260.051 304.977C259.599 304.977 259.195 305.087 258.839 305.306C258.488 305.521 258.211 305.809 258.009 306.169C257.811 306.525 257.712 306.909 257.712 307.322C257.712 307.748 257.816 308.137 258.022 308.488C258.233 308.84 258.514 309.121 258.865 309.331C259.217 309.538 259.607 309.641 260.038 309.641Z" fill="white"/>
<rect x="279.674" y="292.785" width="32.9392" height="32.9392" rx="16.4696" fill="#1F1F1F"/>
<path fill-rule="evenodd" clip-rule="evenodd" d="M296 307.44L293.697 305.137L291.394 307.44L292.086 308.132L293.208 307.01V311.212C293.208 312.293 294.084 313.169 295.165 313.169H296.144V312.19H295.165C294.624 312.19 294.186 311.752 294.186 311.212V307.01L295.308 308.132L296 307.44ZM298.101 311.498L296.979 310.376L296.287 311.068L298.59 313.372L300.894 311.068L300.202 310.376L299.08 311.498V307.362C299.08 306.281 298.203 305.404 297.122 305.404H296.144V306.383H297.122C297.663 306.383 298.101 306.821 298.101 307.362V311.498Z" fill="#2E75FF"/>
<rect x="171.387" y="330.665" width="32.9392" height="32.9392" rx="16.4696" fill="#1F1F1F"/>
<path d="M188.85 351.546V348.852H184.858V348.121L188.659 342.323H189.561V348.141H190.596V348.852H189.561V351.546H188.85ZM185.714 348.121L188.85 348.141L188.83 343.371L185.714 348.121Z" fill="white"/>
<rect x="207.482" y="330.665" width="32.9392" height="32.9392" rx="16.4696" fill="#1F1F1F"/>
<path d="M223.788 351.718C223.235 351.718 222.732 351.584 222.28 351.316C221.832 351.048 221.474 350.688 221.206 350.235C220.942 349.783 220.81 349.285 220.81 348.74H221.522C221.522 349.157 221.623 349.537 221.825 349.88C222.031 350.222 222.306 350.497 222.648 350.703C222.991 350.905 223.371 351.006 223.788 351.006C224.201 351.006 224.579 350.905 224.921 350.703C225.264 350.497 225.538 350.222 225.745 349.88C225.951 349.537 226.054 349.157 226.054 348.74C226.054 348.327 225.953 347.949 225.751 347.607C225.554 347.26 225.279 346.985 224.928 346.783C224.576 346.577 224.17 346.474 223.709 346.474H221.509L222.345 342.323H226.595V343.035H222.919L222.385 345.762H223.584C224.212 345.767 224.763 345.896 225.237 346.151C225.716 346.401 226.089 346.75 226.357 347.198C226.63 347.642 226.766 348.156 226.766 348.74C226.766 349.148 226.689 349.533 226.535 349.893C226.382 350.253 226.166 350.571 225.89 350.848C225.617 351.12 225.301 351.333 224.941 351.487C224.585 351.641 224.201 351.718 223.788 351.718Z" fill="white"/>
<rect x="243.578" y="330.665" width="32.9392" height="32.9392" rx="16.4696" fill="#1F1F1F"/>
<path d="M260.007 351.718C259.432 351.718 258.905 351.575 258.426 351.289C257.948 351.004 257.566 350.622 257.28 350.143C256.995 349.66 256.852 349.129 256.852 348.549C256.852 348.202 256.891 347.912 256.97 347.679C257.054 347.447 257.172 347.181 257.326 346.882L259.948 342.323H260.778L258.808 345.743C259.204 345.554 259.606 345.457 260.014 345.453C260.427 345.444 260.822 345.514 261.2 345.663C261.577 345.813 261.913 346.026 262.208 346.303C262.506 346.579 262.741 346.909 262.913 347.291C263.088 347.673 263.176 348.092 263.176 348.549C263.176 348.984 263.093 349.394 262.926 349.781C262.763 350.163 262.537 350.499 262.247 350.789C261.957 351.079 261.619 351.307 261.233 351.474C260.851 351.636 260.442 351.718 260.007 351.718ZM260.007 351.006C260.482 351.006 260.903 350.892 261.272 350.664C261.646 350.431 261.938 350.128 262.148 349.755C262.359 349.377 262.465 348.973 262.465 348.542C262.465 348.094 262.355 347.686 262.135 347.317C261.916 346.948 261.619 346.654 261.246 346.434C260.877 346.215 260.469 346.105 260.021 346.105C259.555 346.105 259.136 346.219 258.762 346.447C258.393 346.671 258.101 346.968 257.886 347.337C257.671 347.706 257.563 348.108 257.563 348.542C257.563 349.008 257.675 349.427 257.899 349.801C258.128 350.17 258.426 350.464 258.795 350.683C259.169 350.899 259.573 351.006 260.007 351.006Z" fill="white"/>
<rect x="279.674" y="330.665" width="32.9392" height="32.9392" rx="16.4696" fill="#1F1F1F"/>
<path d="M300.261 347.722H296.732V351.252H295.556V347.722H292.026V346.546H295.556V343.017H296.732V346.546H300.261V347.722Z" fill="#05A50C"/>
<rect x="171.387" y="368.544" width="32.9392" height="32.9392" rx="16.4696" fill="#1F1F1F"/>
<path d="M187.704 389.426V380.915H186.768L186.979 380.203H188.415V389.426H187.704Z" fill="white"/>
<rect x="207.482" y="368.544" width="32.9392" height="32.9392" rx="16.4696" fill="#1F1F1F"/>
<path d="M220.947 389.426V388.8C221.334 388.431 221.746 388.036 222.186 387.614C222.629 387.193 223.064 386.762 223.49 386.323C223.92 385.88 224.309 385.445 224.656 385.019C225.007 384.593 225.288 384.189 225.499 383.807C225.71 383.425 225.815 383.082 225.815 382.779C225.815 382.41 225.725 382.072 225.545 381.764C225.365 381.453 225.122 381.204 224.814 381.02C224.511 380.836 224.175 380.743 223.806 380.743C223.433 380.743 223.093 380.836 222.785 381.02C222.478 381.204 222.232 381.453 222.047 381.764C221.867 382.072 221.777 382.41 221.777 382.779H221.066C221.066 382.27 221.189 381.808 221.435 381.396C221.685 380.978 222.016 380.647 222.429 380.401C222.847 380.155 223.306 380.032 223.806 380.032C224.307 380.032 224.761 380.157 225.17 380.407C225.583 380.653 225.912 380.985 226.158 381.402C226.404 381.815 226.527 382.274 226.527 382.779C226.527 383.1 226.435 383.455 226.25 383.846C226.07 384.237 225.826 384.646 225.519 385.072C225.216 385.498 224.876 385.926 224.498 386.356C224.12 386.787 223.732 387.204 223.332 387.608C222.932 388.008 222.552 388.376 222.192 388.715H226.698V389.426H220.947Z" fill="white"/>
<rect x="243.578" y="368.544" width="32.9392" height="32.9392" rx="16.4696" fill="#1F1F1F"/>
<path d="M260.046 389.597C259.483 389.597 258.992 389.477 258.57 389.235C258.153 388.989 257.828 388.662 257.595 388.253C257.362 387.845 257.246 387.395 257.246 386.903H257.957C257.957 387.267 258.041 387.601 258.208 387.904C258.375 388.203 258.614 388.442 258.926 388.622C259.238 388.798 259.611 388.886 260.046 388.886C260.406 388.886 260.744 388.798 261.06 388.622C261.381 388.442 261.64 388.203 261.838 387.904C262.04 387.601 262.141 387.267 262.141 386.903C262.141 386.455 262.029 386.082 261.805 385.783C261.581 385.484 261.273 385.26 260.882 385.111C260.496 384.962 260.054 384.887 259.558 384.887V384.274C260.248 384.274 260.803 384.123 261.225 383.82C261.646 383.517 261.857 383.075 261.857 382.496C261.857 382.175 261.767 381.883 261.587 381.62C261.412 381.352 261.183 381.139 260.902 380.981C260.621 380.818 260.32 380.737 260 380.737C259.675 380.737 259.367 380.818 259.077 380.981C258.787 381.139 258.55 381.352 258.366 381.62C258.186 381.883 258.096 382.175 258.096 382.496H257.384C257.384 382.158 257.454 381.839 257.595 381.54C257.736 381.242 257.929 380.981 258.175 380.757C258.421 380.528 258.7 380.35 259.011 380.223C259.323 380.091 259.65 380.025 259.993 380.025C260.445 380.025 260.867 380.137 261.258 380.361C261.649 380.585 261.965 380.884 262.206 381.257C262.448 381.631 262.569 382.043 262.569 382.496C262.569 382.979 262.441 383.405 262.187 383.774C261.936 384.143 261.6 384.404 261.179 384.558C261.543 384.676 261.849 384.852 262.094 385.085C262.345 385.317 262.534 385.588 262.661 385.895C262.788 386.202 262.852 386.538 262.852 386.903C262.852 387.395 262.72 387.845 262.457 388.253C262.198 388.662 261.855 388.989 261.429 389.235C261.003 389.477 260.542 389.597 260.046 389.597Z" fill="white"/>
<rect x="279.674" y="368.544" width="32.9392" height="32.9392" rx="16.4696" fill="#1F1F1F"/>
<path d="M300.261 385.632H292.026V384.396H300.261V385.632Z" fill="#F61D1D"/>
<rect x="171.387" y="406.425" width="32.9392" height="32.9392" rx="16.4696" fill="#1F1F1F"/>
<path d="M187.718 427.478C187.599 427.478 187.498 427.434 187.415 427.346C187.331 427.262 187.29 427.159 187.29 427.036C187.29 426.922 187.331 426.823 187.415 426.74C187.498 426.652 187.599 426.608 187.718 426.608C187.841 426.608 187.944 426.652 188.027 426.74C188.115 426.823 188.159 426.922 188.159 427.036C188.159 427.159 188.115 427.262 188.027 427.346C187.944 427.434 187.841 427.478 187.718 427.478Z" fill="white"/>
<rect x="207.482" y="406.425" width="32.9392" height="32.9392" rx="16.4696" fill="#1F1F1F"/>
<path d="M223.96 427.478C223.402 427.478 222.906 427.355 222.471 427.109C222.036 426.858 221.668 426.514 221.364 426.074C221.061 425.635 220.831 425.128 220.673 424.553C220.519 423.973 220.442 423.354 220.442 422.695C220.442 422.036 220.519 421.417 220.673 420.837C220.831 420.257 221.061 419.75 221.364 419.315C221.668 418.876 222.036 418.533 222.471 418.288C222.906 418.037 223.402 417.912 223.96 417.912C224.513 417.912 225.008 418.037 225.442 418.288C225.877 418.533 226.244 418.876 226.543 419.315C226.841 419.75 227.07 420.257 227.228 420.837C227.386 421.417 227.465 422.036 227.465 422.695C227.465 423.354 227.386 423.973 227.228 424.553C227.07 425.128 226.841 425.635 226.543 426.074C226.244 426.514 225.877 426.858 225.442 427.109C225.008 427.355 224.513 427.478 223.96 427.478ZM223.96 426.766C224.575 426.766 225.091 426.579 225.508 426.206C225.93 425.833 226.246 425.339 226.457 424.724C226.672 424.105 226.78 423.428 226.78 422.695C226.78 421.922 226.67 421.23 226.45 420.62C226.231 420.005 225.91 419.519 225.488 419.164C225.071 418.804 224.562 418.624 223.96 418.624C223.486 418.624 223.071 418.733 222.715 418.953C222.359 419.168 222.063 419.465 221.826 419.842C221.593 420.22 221.417 420.655 221.299 421.147C221.184 421.634 221.127 422.15 221.127 422.695C221.127 423.433 221.235 424.111 221.45 424.73C221.665 425.345 221.984 425.839 222.405 426.213C222.827 426.582 223.345 426.766 223.96 426.766Z" fill="white"/>
<rect x="243.578" y="406.425" width="32.9392" height="32.9392" rx="16.4696" fill="#1F1F1F"/>
<path d="M263.479 419.806H258.332C258.096 419.806 257.91 419.926 257.787 420.108L255.931 422.894L257.787 425.677C257.91 425.859 258.096 425.982 258.332 425.982H263.479C263.857 425.982 264.165 425.673 264.165 425.296V420.492C264.165 420.115 263.857 419.806 263.479 419.806ZM263.479 425.296H258.356L256.754 422.894L258.353 420.492H263.479V425.296ZM259.502 424.61L260.734 423.378L261.966 424.61L262.45 424.126L261.218 422.894L262.45 421.662L261.966 421.179L260.734 422.41L259.502 421.179L259.019 421.662L260.25 422.894L259.019 424.126L259.502 424.61Z" fill="white"/>
<rect x="279.674" y="406.425" width="32.9392" height="32.9392" rx="16.4696" fill="#1F1F1F"/>
<path d="M300.261 422.071H292.026V420.835H300.261V422.071Z" fill="#9EA5B2"/>
<path d="M300.261 424.953H292.026V423.718H300.261V424.953Z" fill="#9EA5B2"/>
</g>
<rect x="162.299" y="158.5" width="159.402" height="339.332" rx="25.5574"  stroke-width="5" shape-rendering="crispEdges"/>
</g>
<path d="M127.101 558.332V547.132H130.901C131.498 547.132 132.037 547.279 132.517 547.572C132.997 547.86 133.378 548.252 133.661 548.748C133.943 549.239 134.085 549.791 134.085 550.404C134.085 550.954 133.973 551.452 133.749 551.9C133.525 552.348 133.218 552.719 132.829 553.012C132.445 553.306 132.01 553.5 131.525 553.596L134.261 558.332H132.965L130.269 553.684H128.221V558.332H127.101ZM128.221 552.564H130.805C131.199 552.564 131.559 552.468 131.885 552.276C132.215 552.079 132.477 551.815 132.669 551.484C132.866 551.148 132.965 550.77 132.965 550.348C132.965 549.927 132.866 549.551 132.669 549.22C132.477 548.884 132.215 548.62 131.885 548.428C131.559 548.231 131.199 548.132 130.805 548.132H128.221V552.564ZM139.246 558.54C138.51 558.54 137.838 558.351 137.23 557.972C136.627 557.594 136.144 557.087 135.782 556.452C135.424 555.812 135.246 555.106 135.246 554.332C135.246 553.746 135.35 553.199 135.558 552.692C135.766 552.18 136.051 551.732 136.414 551.348C136.782 550.959 137.208 550.655 137.694 550.436C138.179 550.218 138.696 550.108 139.246 550.108C139.838 550.108 140.382 550.226 140.878 550.46C141.379 550.695 141.808 551.023 142.166 551.444C142.528 551.866 142.8 552.359 142.982 552.924C143.168 553.49 143.246 554.1 143.214 554.756H136.43C136.494 555.263 136.654 555.716 136.91 556.116C137.171 556.516 137.502 556.834 137.902 557.068C138.307 557.298 138.755 557.415 139.246 557.42C139.779 557.42 140.259 557.282 140.686 557.004C141.118 556.727 141.464 556.346 141.726 555.86L142.862 556.124C142.542 556.834 142.059 557.415 141.414 557.868C140.768 558.316 140.046 558.54 139.246 558.54ZM136.398 553.852H142.086C142.048 553.356 141.896 552.903 141.63 552.492C141.368 552.076 141.03 551.746 140.614 551.5C140.198 551.25 139.742 551.124 139.246 551.124C138.75 551.124 138.296 551.247 137.886 551.492C137.475 551.732 137.139 552.06 136.878 552.476C136.616 552.887 136.456 553.346 136.398 553.852ZM151.083 550.332H152.203V558.332H151.083L151.043 556.844C150.782 557.351 150.416 557.762 149.947 558.076C149.478 558.386 148.918 558.54 148.267 558.54C147.68 558.54 147.131 558.431 146.619 558.212C146.107 557.988 145.656 557.682 145.267 557.292C144.878 556.903 144.574 556.452 144.355 555.94C144.136 555.428 144.027 554.879 144.027 554.292C144.027 553.716 144.134 553.175 144.347 552.668C144.566 552.162 144.864 551.716 145.243 551.332C145.627 550.948 146.07 550.65 146.571 550.436C147.078 550.218 147.619 550.108 148.195 550.108C148.862 550.108 149.443 550.268 149.939 550.588C150.435 550.903 150.83 551.316 151.123 551.828L151.083 550.332ZM148.243 557.452C148.814 557.452 149.304 557.314 149.715 557.036C150.126 556.754 150.44 556.375 150.659 555.9C150.883 555.426 150.995 554.903 150.995 554.332C150.995 553.746 150.883 553.218 150.659 552.748C150.435 552.274 150.118 551.898 149.707 551.62C149.296 551.343 148.808 551.204 148.243 551.204C147.678 551.204 147.16 551.346 146.691 551.628C146.227 551.906 145.856 552.282 145.579 552.756C145.307 553.231 145.171 553.756 145.171 554.332C145.171 554.914 145.312 555.442 145.595 555.916C145.878 556.386 146.251 556.759 146.715 557.036C147.184 557.314 147.694 557.452 148.243 557.452ZM153.913 558.332V546.332H155.033V558.332H153.913ZM156.96 552.972H162.08V554.092H156.96V552.972ZM168.095 551.452H166.183L166.175 558.332H165.055L165.063 551.452H163.615V550.332H165.063L165.055 547.82H166.175L166.183 550.332H168.095V551.452ZM169.46 550.332H170.58V558.332H169.46V550.332ZM170.028 548.932C169.847 548.932 169.692 548.874 169.564 548.756C169.441 548.634 169.38 548.482 169.38 548.3C169.38 548.119 169.441 547.97 169.564 547.852C169.692 547.73 169.847 547.668 170.028 547.668C170.204 547.668 170.353 547.73 170.476 547.852C170.604 547.97 170.668 548.119 170.668 548.3C170.668 548.482 170.607 548.634 170.484 548.756C170.361 548.874 170.209 548.932 170.028 548.932ZM172.476 558.332V550.332H173.596V551.436C173.884 551.031 174.252 550.708 174.7 550.468C175.148 550.228 175.638 550.108 176.172 550.108C176.774 550.108 177.326 550.258 177.828 550.556C178.329 550.85 178.721 551.242 179.004 551.732C179.286 551.242 179.676 550.85 180.172 550.556C180.668 550.258 181.217 550.108 181.82 550.108C182.422 550.108 182.972 550.255 183.468 550.548C183.964 550.842 184.358 551.236 184.652 551.732C184.945 552.228 185.092 552.778 185.092 553.38V558.332H183.972V553.628C183.972 553.202 183.868 552.807 183.66 552.444C183.452 552.082 183.172 551.791 182.82 551.572C182.473 551.348 182.086 551.236 181.66 551.236C181.233 551.236 180.844 551.34 180.492 551.548C180.145 551.751 179.868 552.034 179.66 552.396C179.452 552.754 179.348 553.164 179.348 553.628V558.332H178.228V553.628C178.228 553.164 178.124 552.754 177.916 552.396C177.708 552.034 177.428 551.751 177.076 551.548C176.724 551.34 176.334 551.236 175.908 551.236C175.486 551.236 175.1 551.348 174.748 551.572C174.396 551.791 174.116 552.082 173.908 552.444C173.7 552.807 173.596 553.202 173.596 553.628V558.332H172.476ZM190.058 558.54C189.322 558.54 188.65 558.351 188.042 557.972C187.439 557.594 186.957 557.087 186.594 556.452C186.237 555.812 186.058 555.106 186.058 554.332C186.058 553.746 186.162 553.199 186.37 552.692C186.578 552.18 186.863 551.732 187.226 551.348C187.594 550.959 188.021 550.655 188.506 550.436C188.991 550.218 189.509 550.108 190.058 550.108C190.65 550.108 191.194 550.226 191.69 550.46C192.191 550.695 192.621 551.023 192.978 551.444C193.341 551.866 193.613 552.359 193.794 552.924C193.981 553.49 194.058 554.1 194.026 554.756H187.242C187.306 555.263 187.466 555.716 187.722 556.116C187.983 556.516 188.314 556.834 188.714 557.068C189.119 557.298 189.567 557.415 190.058 557.42C190.591 557.42 191.071 557.282 191.498 557.004C191.93 556.727 192.277 556.346 192.538 555.86L193.674 556.124C193.354 556.834 192.871 557.415 192.226 557.868C191.581 558.316 190.858 558.54 190.058 558.54ZM187.21 553.852H192.898C192.861 553.356 192.709 552.903 192.442 552.492C192.181 552.076 191.842 551.746 191.426 551.5C191.01 551.25 190.554 551.124 190.058 551.124C189.562 551.124 189.109 551.247 188.698 551.492C188.287 551.732 187.951 552.06 187.69 552.476C187.429 552.887 187.269 553.346 187.21 553.852ZM206.319 547.132H207.439V558.332H206.319V552.892H200.439V558.332H199.319V547.132H200.439V551.772H206.319V547.132ZM215.88 550.332H217V558.332H215.88L215.84 556.844C215.578 557.351 215.213 557.762 214.744 558.076C214.274 558.386 213.714 558.54 213.064 558.54C212.477 558.54 211.928 558.431 211.416 558.212C210.904 557.988 210.453 557.682 210.064 557.292C209.674 556.903 209.37 556.452 209.152 555.94C208.933 555.428 208.824 554.879 208.824 554.292C208.824 553.716 208.93 553.175 209.144 552.668C209.362 552.162 209.661 551.716 210.04 551.332C210.424 550.948 210.866 550.65 211.368 550.436C211.874 550.218 212.416 550.108 212.992 550.108C213.658 550.108 214.24 550.268 214.736 550.588C215.232 550.903 215.626 551.316 215.92 551.828L215.88 550.332ZM213.04 557.452C213.61 557.452 214.101 557.314 214.512 557.036C214.922 556.754 215.237 556.375 215.456 555.9C215.68 555.426 215.792 554.903 215.792 554.332C215.792 553.746 215.68 553.218 215.456 552.748C215.232 552.274 214.914 551.898 214.504 551.62C214.093 551.343 213.605 551.204 213.04 551.204C212.474 551.204 211.957 551.346 211.488 551.628C211.024 551.906 210.653 552.282 210.376 552.756C210.104 553.231 209.968 553.756 209.968 554.332C209.968 554.914 210.109 555.442 210.392 555.916C210.674 556.386 211.048 556.759 211.512 557.036C211.981 557.314 212.49 557.452 213.04 557.452ZM225.577 553.38V558.332H224.457V553.604C224.457 553.167 224.35 552.77 224.137 552.412C223.923 552.055 223.638 551.77 223.281 551.556C222.923 551.343 222.526 551.236 222.089 551.236C221.657 551.236 221.259 551.343 220.897 551.556C220.539 551.77 220.254 552.055 220.041 552.412C219.827 552.77 219.721 553.167 219.721 553.604V558.332H218.601V550.332H219.721V551.436C220.003 551.031 220.371 550.708 220.825 550.468C221.278 550.228 221.771 550.108 222.305 550.108C222.907 550.108 223.457 550.255 223.953 550.548C224.449 550.842 224.843 551.236 225.137 551.732C225.43 552.228 225.577 552.778 225.577 553.38ZM233.607 546.332H234.727V558.332H233.607V556.836C233.329 557.348 232.948 557.762 232.463 558.076C231.983 558.386 231.412 558.54 230.751 558.54C230.169 558.54 229.625 558.431 229.119 558.212C228.612 557.994 228.164 557.692 227.775 557.308C227.391 556.919 227.089 556.471 226.871 555.964C226.652 555.458 226.543 554.914 226.543 554.332C226.543 553.751 226.652 553.207 226.871 552.7C227.089 552.188 227.391 551.74 227.775 551.356C228.164 550.967 228.612 550.663 229.119 550.444C229.625 550.226 230.169 550.116 230.751 550.116C231.412 550.116 231.983 550.274 232.463 550.588C232.948 550.898 233.329 551.306 233.607 551.812V546.332ZM230.759 557.452C231.329 557.452 231.82 557.314 232.231 557.036C232.641 556.754 232.956 556.375 233.175 555.9C233.399 555.426 233.511 554.903 233.511 554.332C233.511 553.746 233.399 553.218 233.175 552.748C232.951 552.274 232.633 551.898 232.223 551.62C231.812 551.343 231.324 551.204 230.759 551.204C230.193 551.204 229.679 551.346 229.215 551.628C228.751 551.906 228.38 552.282 228.103 552.756C227.825 553.231 227.687 553.756 227.687 554.332C227.687 554.914 227.828 555.442 228.111 555.916C228.393 556.386 228.767 556.759 229.231 557.036C229.7 557.314 230.209 557.452 230.759 557.452ZM239.12 558.484C238.682 558.474 238.256 558.394 237.84 558.244C237.424 558.095 237.061 557.892 236.752 557.636C236.442 557.38 236.221 557.09 236.088 556.764L237.056 556.348C237.141 556.556 237.298 556.748 237.528 556.924C237.762 557.095 238.029 557.234 238.328 557.34C238.626 557.442 238.922 557.492 239.216 557.492C239.541 557.492 239.845 557.439 240.128 557.332C240.41 557.226 240.64 557.074 240.816 556.876C240.997 556.674 241.088 556.436 241.088 556.164C241.088 555.871 240.992 555.642 240.8 555.476C240.608 555.306 240.365 555.172 240.072 555.076C239.778 554.975 239.477 554.879 239.168 554.788C238.602 554.634 238.104 554.463 237.672 554.276C237.24 554.09 236.901 553.852 236.656 553.564C236.416 553.271 236.296 552.895 236.296 552.436C236.296 551.951 236.432 551.532 236.704 551.18C236.981 550.823 237.341 550.548 237.784 550.356C238.232 550.159 238.709 550.06 239.216 550.06C239.866 550.06 240.458 550.202 240.992 550.484C241.53 550.767 241.92 551.143 242.16 551.612L241.256 552.148C241.16 551.93 241.008 551.74 240.8 551.58C240.592 551.42 240.354 551.295 240.088 551.204C239.826 551.114 239.56 551.066 239.288 551.06C238.946 551.055 238.629 551.106 238.336 551.212C238.042 551.314 237.805 551.466 237.624 551.668C237.448 551.871 237.36 552.119 237.36 552.412C237.36 552.706 237.448 552.93 237.624 553.084C237.8 553.234 238.037 553.356 238.336 553.452C238.64 553.543 238.981 553.65 239.36 553.772C239.845 553.927 240.301 554.103 240.728 554.3C241.154 554.498 241.498 554.743 241.76 555.036C242.021 555.33 242.149 555.7 242.144 556.148C242.144 556.628 242 557.047 241.712 557.404C241.424 557.762 241.05 558.036 240.592 558.228C240.133 558.415 239.642 558.5 239.12 558.484ZM250.499 553.38V558.332H249.379V553.604C249.379 553.167 249.272 552.77 249.059 552.412C248.845 552.055 248.56 551.77 248.203 551.556C247.845 551.343 247.448 551.236 247.011 551.236C246.579 551.236 246.181 551.343 245.819 551.556C245.461 551.77 245.176 552.055 244.963 552.412C244.749 552.77 244.643 553.167 244.643 553.604V558.332H243.523V546.332H244.643V551.436C244.925 551.031 245.293 550.708 245.747 550.468C246.2 550.228 246.693 550.108 247.227 550.108C247.829 550.108 248.379 550.255 248.875 550.548C249.371 550.842 249.765 551.236 250.059 551.732C250.352 552.228 250.499 552.778 250.499 553.38ZM258.52 550.332H259.64V558.332H258.52L258.48 556.844C258.219 557.351 257.854 557.762 257.384 558.076C256.915 558.386 256.355 558.54 255.704 558.54C255.118 558.54 254.568 558.431 254.056 558.212C253.544 557.988 253.094 557.682 252.704 557.292C252.315 556.903 252.011 556.452 251.792 555.94C251.574 555.428 251.464 554.879 251.464 554.292C251.464 553.716 251.571 553.175 251.784 552.668C252.003 552.162 252.302 551.716 252.68 551.332C253.064 550.948 253.507 550.65 254.008 550.436C254.515 550.218 255.056 550.108 255.632 550.108C256.299 550.108 256.88 550.268 257.376 550.588C257.872 550.903 258.267 551.316 258.56 551.828L258.52 550.332ZM255.68 557.452C256.251 557.452 256.742 557.314 257.152 557.036C257.563 556.754 257.878 556.375 258.096 555.9C258.32 555.426 258.432 554.903 258.432 554.332C258.432 553.746 258.32 553.218 258.096 552.748C257.872 552.274 257.555 551.898 257.144 551.62C256.734 551.343 256.246 551.204 255.68 551.204C255.115 551.204 254.598 551.346 254.128 551.628C253.664 551.906 253.294 552.282 253.016 552.756C252.744 553.231 252.608 553.756 252.608 554.332C252.608 554.914 252.75 555.442 253.032 555.916C253.315 556.386 253.688 556.759 254.152 557.036C254.622 557.314 255.131 557.452 255.68 557.452ZM267.599 558.332H266.311L264.071 554.468L262.471 556.38V558.332H261.351V546.332H262.471V554.636L266.079 550.332H267.543L264.831 553.556L267.599 558.332ZM272.121 558.54C271.385 558.54 270.713 558.351 270.105 557.972C269.502 557.594 269.019 557.087 268.657 556.452C268.299 555.812 268.121 555.106 268.121 554.332C268.121 553.746 268.225 553.199 268.433 552.692C268.641 552.18 268.926 551.732 269.289 551.348C269.657 550.959 270.083 550.655 270.569 550.436C271.054 550.218 271.571 550.108 272.121 550.108C272.713 550.108 273.257 550.226 273.753 550.46C274.254 550.695 274.683 551.023 275.041 551.444C275.403 551.866 275.675 552.359 275.857 552.924C276.043 553.49 276.121 554.1 276.089 554.756H269.305C269.369 555.263 269.529 555.716 269.785 556.116C270.046 556.516 270.377 556.834 270.777 557.068C271.182 557.298 271.63 557.415 272.121 557.42C272.654 557.42 273.134 557.282 273.561 557.004C273.993 556.727 274.339 556.346 274.601 555.86L275.737 556.124C275.417 556.834 274.934 557.415 274.289 557.868C273.643 558.316 272.921 558.54 272.121 558.54ZM269.273 553.852H274.961C274.923 553.356 274.771 552.903 274.505 552.492C274.243 552.076 273.905 551.746 273.489 551.5C273.073 551.25 272.617 551.124 272.121 551.124C271.625 551.124 271.171 551.247 270.761 551.492C270.35 551.732 270.014 552.06 269.753 552.476C269.491 552.887 269.331 553.346 269.273 553.852ZM287.094 556.324L288.094 556.868C287.731 557.375 287.27 557.78 286.71 558.084C286.155 558.388 285.553 558.54 284.902 558.54C284.166 558.54 283.494 558.351 282.886 557.972C282.283 557.594 281.801 557.087 281.438 556.452C281.081 555.812 280.902 555.106 280.902 554.332C280.902 553.746 281.006 553.199 281.214 552.692C281.422 552.18 281.707 551.732 282.07 551.348C282.438 550.959 282.865 550.655 283.35 550.436C283.835 550.218 284.353 550.108 284.902 550.108C285.553 550.108 286.155 550.26 286.71 550.564C287.27 550.868 287.731 551.276 288.094 551.788L287.094 552.324C286.817 551.972 286.483 551.703 286.094 551.516C285.705 551.324 285.307 551.228 284.902 551.228C284.363 551.228 283.875 551.372 283.438 551.66C283.001 551.943 282.654 552.319 282.398 552.788C282.147 553.258 282.022 553.772 282.022 554.332C282.022 554.892 282.15 555.407 282.406 555.876C282.667 556.346 283.017 556.722 283.454 557.004C283.891 557.282 284.374 557.42 284.902 557.42C285.339 557.42 285.75 557.319 286.134 557.116C286.518 556.914 286.838 556.65 287.094 556.324ZM292.949 558.54C292.213 558.54 291.541 558.351 290.933 557.972C290.33 557.594 289.847 557.087 289.485 556.452C289.127 555.812 288.949 555.106 288.949 554.332C288.949 553.746 289.053 553.199 289.261 552.692C289.469 552.18 289.754 551.732 290.117 551.348C290.485 550.959 290.911 550.655 291.397 550.436C291.882 550.218 292.399 550.108 292.949 550.108C293.685 550.108 294.354 550.298 294.957 550.676C295.565 551.055 296.047 551.564 296.405 552.204C296.767 552.844 296.949 553.554 296.949 554.332C296.949 554.914 296.845 555.458 296.637 555.964C296.429 556.471 296.141 556.919 295.773 557.308C295.41 557.692 294.986 557.994 294.501 558.212C294.021 558.431 293.503 558.54 292.949 558.54ZM292.949 557.42C293.493 557.42 293.981 557.279 294.413 556.996C294.85 556.708 295.194 556.33 295.445 555.86C295.701 555.391 295.829 554.882 295.829 554.332C295.829 553.772 295.701 553.258 295.445 552.788C295.189 552.314 294.842 551.935 294.405 551.652C293.973 551.37 293.487 551.228 292.949 551.228C292.405 551.228 291.914 551.372 291.477 551.66C291.045 551.943 290.701 552.319 290.445 552.788C290.194 553.258 290.069 553.772 290.069 554.332C290.069 554.908 290.199 555.431 290.461 555.9C290.722 556.364 291.071 556.735 291.509 557.012C291.946 557.284 292.426 557.42 292.949 557.42ZM305.28 553.38V558.332H304.16V553.604C304.16 553.167 304.053 552.77 303.84 552.412C303.626 552.055 303.341 551.77 302.984 551.556C302.626 551.343 302.229 551.236 301.792 551.236C301.36 551.236 300.962 551.343 300.6 551.556C300.242 551.77 299.957 552.055 299.744 552.412C299.53 552.77 299.424 553.167 299.424 553.604V558.332H298.304V550.332H299.424V551.436C299.706 551.031 300.074 550.708 300.528 550.468C300.981 550.228 301.474 550.108 302.008 550.108C302.61 550.108 303.16 550.255 303.656 550.548C304.152 550.842 304.546 551.236 304.84 551.732C305.133 552.228 305.28 552.778 305.28 553.38ZM310.59 558.332H309.166L306.246 550.308H307.438L309.878 557.02L312.318 550.308H313.51L310.59 558.332ZM318.043 558.54C317.307 558.54 316.635 558.351 316.027 557.972C315.424 557.594 314.941 557.087 314.579 556.452C314.221 555.812 314.043 555.106 314.043 554.332C314.043 553.746 314.147 553.199 314.355 552.692C314.563 552.18 314.848 551.732 315.211 551.348C315.579 550.959 316.005 550.655 316.491 550.436C316.976 550.218 317.493 550.108 318.043 550.108C318.635 550.108 319.179 550.226 319.675 550.46C320.176 550.695 320.605 551.023 320.963 551.444C321.325 551.866 321.597 552.359 321.779 552.924C321.965 553.49 322.043 554.1 322.01 554.756H315.227C315.291 555.263 315.451 555.716 315.707 556.116C315.968 556.516 316.299 556.834 316.699 557.068C317.104 557.298 317.552 557.415 318.043 557.42C318.576 557.42 319.056 557.282 319.483 557.004C319.915 556.727 320.261 556.346 320.523 555.86L321.659 556.124C321.339 556.834 320.856 557.415 320.211 557.868C319.565 558.316 318.843 558.54 318.043 558.54ZM315.195 553.852H320.883C320.845 553.356 320.693 552.903 320.427 552.492C320.165 552.076 319.827 551.746 319.411 551.5C318.995 551.25 318.539 551.124 318.043 551.124C317.547 551.124 317.093 551.247 316.683 551.492C316.272 551.732 315.936 552.06 315.674 552.476C315.413 552.887 315.253 553.346 315.195 553.852ZM323.382 558.332V550.332H324.502V551.436C324.785 551.031 325.153 550.708 325.606 550.468C326.059 550.228 326.553 550.108 327.086 550.108C327.395 550.108 327.694 550.148 327.982 550.228L327.526 551.34C327.302 551.271 327.083 551.236 326.87 551.236C326.438 551.236 326.041 551.343 325.678 551.556C325.321 551.77 325.035 552.055 324.822 552.412C324.609 552.77 324.502 553.167 324.502 553.604V558.332H323.382ZM333.189 551.452H331.277L331.269 558.332H330.149L330.157 551.452H328.709V550.332H330.157L330.149 547.82H331.269L331.277 550.332H333.189V551.452ZM334.554 550.332H335.674V558.332H334.554V550.332ZM335.122 548.932C334.94 548.932 334.786 548.874 334.658 548.756C334.535 548.634 334.474 548.482 334.474 548.3C334.474 548.119 334.535 547.97 334.658 547.852C334.786 547.73 334.94 547.668 335.122 547.668C335.298 547.668 335.447 547.73 335.57 547.852C335.698 547.97 335.762 548.119 335.762 548.3C335.762 548.482 335.7 548.634 335.578 548.756C335.455 548.874 335.303 548.932 335.122 548.932ZM341.043 558.54C340.307 558.54 339.635 558.351 339.027 557.972C338.424 557.594 337.941 557.087 337.579 556.452C337.221 555.812 337.043 555.106 337.043 554.332C337.043 553.746 337.147 553.199 337.355 552.692C337.563 552.18 337.848 551.732 338.211 551.348C338.579 550.959 339.005 550.655 339.491 550.436C339.976 550.218 340.493 550.108 341.043 550.108C341.779 550.108 342.448 550.298 343.051 550.676C343.659 551.055 344.141 551.564 344.499 552.204C344.861 552.844 345.043 553.554 345.043 554.332C345.043 554.914 344.939 555.458 344.731 555.964C344.523 556.471 344.235 556.919 343.867 557.308C343.504 557.692 343.08 557.994 342.595 558.212C342.115 558.431 341.597 558.54 341.043 558.54ZM341.043 557.42C341.587 557.42 342.075 557.279 342.507 556.996C342.944 556.708 343.288 556.33 343.539 555.86C343.795 555.391 343.923 554.882 343.923 554.332C343.923 553.772 343.795 553.258 343.539 552.788C343.283 552.314 342.936 551.935 342.499 551.652C342.067 551.37 341.581 551.228 341.043 551.228C340.499 551.228 340.008 551.372 339.571 551.66C339.139 551.943 338.795 552.319 338.539 552.788C338.288 553.258 338.163 553.772 338.163 554.332C338.163 554.908 338.293 555.431 338.555 555.9C338.816 556.364 339.165 556.735 339.603 557.012C340.04 557.284 340.52 557.42 341.043 557.42ZM353.374 553.38V558.332H352.254V553.604C352.254 553.167 352.147 552.77 351.934 552.412C351.72 552.055 351.435 551.77 351.078 551.556C350.72 551.343 350.323 551.236 349.886 551.236C349.454 551.236 349.056 551.343 348.694 551.556C348.336 551.77 348.051 552.055 347.838 552.412C347.624 552.77 347.518 553.167 347.518 553.604V558.332H346.398V550.332H347.518V551.436C347.8 551.031 348.168 550.708 348.622 550.468C349.075 550.228 349.568 550.108 350.102 550.108C350.704 550.108 351.254 550.255 351.75 550.548C352.246 550.842 352.64 551.236 352.934 551.732C353.227 552.228 353.374 552.778 353.374 553.38ZM170.007 569.332H171.127V577.332H170.007V569.332ZM170.575 567.932C170.394 567.932 170.239 567.874 170.111 567.756C169.988 567.634 169.927 567.482 169.927 567.3C169.927 567.119 169.988 566.97 170.111 566.852C170.239 566.73 170.394 566.668 170.575 566.668C170.751 566.668 170.9 566.73 171.023 566.852C171.151 566.97 171.215 567.119 171.215 567.3C171.215 567.482 171.154 567.634 171.031 567.756C170.908 567.874 170.756 567.932 170.575 567.932ZM179.999 572.38V577.332H178.879V572.604C178.879 572.167 178.772 571.77 178.559 571.412C178.345 571.055 178.06 570.77 177.703 570.556C177.345 570.343 176.948 570.236 176.511 570.236C176.079 570.236 175.681 570.343 175.319 570.556C174.961 570.77 174.676 571.055 174.463 571.412C174.249 571.77 174.143 572.167 174.143 572.604V577.332H173.023V569.332H174.143V570.436C174.425 570.031 174.793 569.708 175.247 569.468C175.7 569.228 176.193 569.108 176.727 569.108C177.329 569.108 177.879 569.255 178.375 569.548C178.871 569.842 179.265 570.236 179.559 570.732C179.852 571.228 179.999 571.778 179.999 572.38ZM185.444 577.332V569.332H186.564V570.436C186.852 570.031 187.22 569.708 187.668 569.468C188.116 569.228 188.607 569.108 189.14 569.108C189.743 569.108 190.295 569.258 190.796 569.556C191.298 569.85 191.69 570.242 191.972 570.732C192.255 570.242 192.644 569.85 193.14 569.556C193.636 569.258 194.186 569.108 194.788 569.108C195.391 569.108 195.94 569.255 196.436 569.548C196.932 569.842 197.327 570.236 197.62 570.732C197.914 571.228 198.06 571.778 198.06 572.38V577.332H196.94V572.628C196.94 572.202 196.836 571.807 196.628 571.444C196.42 571.082 196.14 570.791 195.788 570.572C195.442 570.348 195.055 570.236 194.628 570.236C194.202 570.236 193.812 570.34 193.46 570.548C193.114 570.751 192.836 571.034 192.628 571.396C192.42 571.754 192.316 572.164 192.316 572.628V577.332H191.196V572.628C191.196 572.164 191.092 571.754 190.884 571.396C190.676 571.034 190.396 570.751 190.044 570.548C189.692 570.34 189.303 570.236 188.876 570.236C188.455 570.236 188.068 570.348 187.716 570.572C187.364 570.791 187.084 571.082 186.876 571.444C186.668 571.807 186.564 572.202 186.564 572.628V577.332H185.444ZM199.343 574.268V569.332H200.463V574.044C200.463 574.482 200.57 574.879 200.783 575.236C200.996 575.594 201.282 575.879 201.639 576.092C202.002 576.306 202.399 576.412 202.831 576.412C203.268 576.412 203.663 576.306 204.015 576.092C204.372 575.879 204.658 575.594 204.871 575.236C205.084 574.879 205.191 574.482 205.191 574.044V569.332H206.311L206.319 577.332H205.199L205.191 576.212C204.908 576.618 204.54 576.94 204.087 577.18C203.639 577.42 203.148 577.54 202.615 577.54C202.012 577.54 201.463 577.394 200.967 577.1C200.471 576.807 200.076 576.412 199.783 575.916C199.49 575.42 199.343 574.871 199.343 574.268ZM208.023 577.332V565.332H209.143V577.332H208.023ZM215.157 570.452H213.245L213.237 577.332H212.117L212.125 570.452H210.677V569.332H212.125L212.117 566.82H213.237L213.245 569.332H215.157V570.452ZM216.523 569.332H217.643V577.332H216.523V569.332ZM217.091 567.932C216.909 567.932 216.755 567.874 216.627 567.756C216.504 567.634 216.443 567.482 216.443 567.3C216.443 567.119 216.504 566.97 216.627 566.852C216.755 566.73 216.909 566.668 217.091 566.668C217.267 566.668 217.416 566.73 217.539 566.852C217.667 566.97 217.731 567.119 217.731 567.3C217.731 567.482 217.669 567.634 217.547 567.756C217.424 567.874 217.272 567.932 217.091 567.932ZM220.627 581.332H219.507V569.332H220.627V570.828C220.904 570.322 221.283 569.911 221.763 569.596C222.243 569.282 222.814 569.124 223.475 569.124C224.056 569.124 224.6 569.234 225.107 569.452C225.619 569.671 226.067 569.975 226.451 570.364C226.835 570.748 227.136 571.194 227.355 571.7C227.574 572.207 227.683 572.751 227.683 573.332C227.683 573.914 227.574 574.46 227.355 574.972C227.136 575.484 226.835 575.935 226.451 576.324C226.067 576.708 225.619 577.01 225.107 577.228C224.6 577.447 224.056 577.556 223.475 577.556C222.814 577.556 222.243 577.399 221.763 577.084C221.283 576.77 220.904 576.359 220.627 575.852V581.332ZM223.467 570.212C222.907 570.212 222.419 570.354 222.003 570.636C221.592 570.914 221.275 571.287 221.051 571.756C220.827 572.226 220.715 572.751 220.715 573.332C220.715 573.903 220.824 574.426 221.043 574.9C221.267 575.375 221.584 575.754 221.995 576.036C222.411 576.319 222.902 576.46 223.467 576.46C224.022 576.46 224.531 576.322 224.995 576.044C225.464 575.767 225.84 575.394 226.123 574.924C226.406 574.45 226.547 573.919 226.547 573.332C226.547 572.762 226.408 572.242 226.131 571.772C225.854 571.298 225.483 570.919 225.019 570.636C224.555 570.354 224.038 570.212 223.467 570.212ZM228.976 577.332V565.332H230.096V577.332H228.976ZM235.48 577.54C234.744 577.54 234.072 577.351 233.464 576.972C232.861 576.594 232.379 576.087 232.016 575.452C231.659 574.812 231.48 574.106 231.48 573.332C231.48 572.746 231.584 572.199 231.792 571.692C232 571.18 232.285 570.732 232.648 570.348C233.016 569.959 233.443 569.655 233.928 569.436C234.413 569.218 234.931 569.108 235.48 569.108C236.072 569.108 236.616 569.226 237.112 569.46C237.613 569.695 238.043 570.023 238.4 570.444C238.763 570.866 239.035 571.359 239.216 571.924C239.403 572.49 239.48 573.1 239.448 573.756H232.664C232.728 574.263 232.888 574.716 233.144 575.116C233.405 575.516 233.736 575.834 234.136 576.068C234.541 576.298 234.989 576.415 235.48 576.42C236.013 576.42 236.493 576.282 236.92 576.004C237.352 575.727 237.699 575.346 237.96 574.86L239.096 575.124C238.776 575.834 238.293 576.415 237.648 576.868C237.003 577.316 236.28 577.54 235.48 577.54ZM232.632 572.852H238.32C238.283 572.356 238.131 571.903 237.864 571.492C237.603 571.076 237.264 570.746 236.848 570.5C236.432 570.25 235.976 570.124 235.48 570.124C234.984 570.124 234.531 570.247 234.12 570.492C233.709 570.732 233.373 571.06 233.112 571.476C232.851 571.887 232.691 572.346 232.632 572.852ZM250.453 575.324L251.453 575.868C251.091 576.375 250.629 576.78 250.069 577.084C249.515 577.388 248.912 577.54 248.261 577.54C247.525 577.54 246.853 577.351 246.245 576.972C245.643 576.594 245.16 576.087 244.797 575.452C244.44 574.812 244.261 574.106 244.261 573.332C244.261 572.746 244.365 572.199 244.573 571.692C244.781 571.18 245.067 570.732 245.429 570.348C245.797 569.959 246.224 569.655 246.709 569.436C247.195 569.218 247.712 569.108 248.261 569.108C248.912 569.108 249.515 569.26 250.069 569.564C250.629 569.868 251.091 570.276 251.453 570.788L250.453 571.324C250.176 570.972 249.843 570.703 249.453 570.516C249.064 570.324 248.667 570.228 248.261 570.228C247.723 570.228 247.235 570.372 246.797 570.66C246.36 570.943 246.013 571.319 245.757 571.788C245.507 572.258 245.381 572.772 245.381 573.332C245.381 573.892 245.509 574.407 245.765 574.876C246.027 575.346 246.376 575.722 246.813 576.004C247.251 576.282 247.733 576.42 248.261 576.42C248.699 576.42 249.109 576.319 249.493 576.116C249.877 575.914 250.197 575.65 250.453 575.324ZM252.499 574.268V569.332H253.619V574.044C253.619 574.482 253.726 574.879 253.939 575.236C254.153 575.594 254.438 575.879 254.795 576.092C255.158 576.306 255.555 576.412 255.987 576.412C256.425 576.412 256.819 576.306 257.171 576.092C257.529 575.879 257.814 575.594 258.027 575.236C258.241 574.879 258.347 574.482 258.347 574.044V569.332H259.467L259.475 577.332H258.355L258.347 576.212C258.065 576.618 257.697 576.94 257.243 577.18C256.795 577.42 256.305 577.54 255.771 577.54C255.169 577.54 254.619 577.394 254.123 577.1C253.627 576.807 253.233 576.412 252.939 575.916C252.646 575.42 252.499 574.871 252.499 574.268ZM261.069 577.332V569.332H262.189V570.436C262.472 570.031 262.84 569.708 263.293 569.468C263.747 569.228 264.24 569.108 264.773 569.108C265.083 569.108 265.381 569.148 265.669 569.228L265.213 570.34C264.989 570.271 264.771 570.236 264.557 570.236C264.125 570.236 263.728 570.343 263.365 570.556C263.008 570.77 262.723 571.055 262.509 571.412C262.296 571.77 262.189 572.167 262.189 572.604V577.332H261.069ZM266.71 577.332V569.332H267.83V570.436C268.113 570.031 268.481 569.708 268.934 569.468C269.387 569.228 269.881 569.108 270.414 569.108C270.723 569.108 271.022 569.148 271.31 569.228L270.854 570.34C270.63 570.271 270.411 570.236 270.198 570.236C269.766 570.236 269.369 570.343 269.006 570.556C268.649 570.77 268.363 571.055 268.15 571.412C267.937 571.77 267.83 572.167 267.83 572.604V577.332H266.71ZM275.418 577.54C274.682 577.54 274.01 577.351 273.402 576.972C272.799 576.594 272.316 576.087 271.954 575.452C271.596 574.812 271.418 574.106 271.418 573.332C271.418 572.746 271.522 572.199 271.73 571.692C271.938 571.18 272.223 570.732 272.586 570.348C272.954 569.959 273.38 569.655 273.866 569.436C274.351 569.218 274.868 569.108 275.418 569.108C276.01 569.108 276.554 569.226 277.05 569.46C277.551 569.695 277.98 570.023 278.338 570.444C278.7 570.866 278.972 571.359 279.154 571.924C279.34 572.49 279.418 573.1 279.385 573.756H272.602C272.666 574.263 272.826 574.716 273.082 575.116C273.343 575.516 273.674 575.834 274.074 576.068C274.479 576.298 274.927 576.415 275.418 576.42C275.951 576.42 276.431 576.282 276.858 576.004C277.29 575.727 277.636 575.346 277.898 574.86L279.034 575.124C278.714 575.834 278.231 576.415 277.586 576.868C276.94 577.316 276.218 577.54 275.418 577.54ZM272.57 572.852H278.258C278.22 572.356 278.068 571.903 277.802 571.492C277.54 571.076 277.202 570.746 276.786 570.5C276.37 570.25 275.914 570.124 275.418 570.124C274.922 570.124 274.468 570.247 274.058 570.492C273.647 570.732 273.311 571.06 273.049 571.476C272.788 571.887 272.628 572.346 272.57 572.852ZM287.733 572.38V577.332H286.613V572.604C286.613 572.167 286.506 571.77 286.293 571.412C286.08 571.055 285.794 570.77 285.437 570.556C285.08 570.343 284.682 570.236 284.245 570.236C283.813 570.236 283.416 570.343 283.053 570.556C282.696 570.77 282.41 571.055 282.197 571.412C281.984 571.77 281.877 572.167 281.877 572.604V577.332H280.757V569.332H281.877V570.436C282.16 570.031 282.528 569.708 282.981 569.468C283.434 569.228 283.928 569.108 284.461 569.108C285.064 569.108 285.613 569.255 286.109 569.548C286.605 569.842 287 570.236 287.293 570.732C287.586 571.228 287.733 571.778 287.733 572.38ZM294.891 575.324L295.891 575.868C295.528 576.375 295.067 576.78 294.507 577.084C293.952 577.388 293.349 577.54 292.699 577.54C291.963 577.54 291.291 577.351 290.683 576.972C290.08 576.594 289.597 576.087 289.235 575.452C288.877 574.812 288.699 574.106 288.699 573.332C288.699 572.746 288.803 572.199 289.011 571.692C289.219 571.18 289.504 570.732 289.867 570.348C290.235 569.959 290.661 569.655 291.147 569.436C291.632 569.218 292.149 569.108 292.699 569.108C293.349 569.108 293.952 569.26 294.507 569.564C295.067 569.868 295.528 570.276 295.891 570.788L294.891 571.324C294.613 570.972 294.28 570.703 293.891 570.516C293.501 570.324 293.104 570.228 292.699 570.228C292.16 570.228 291.672 570.372 291.235 570.66C290.797 570.943 290.451 571.319 290.195 571.788C289.944 572.258 289.819 572.772 289.819 573.332C289.819 573.892 289.947 574.407 290.203 574.876C290.464 575.346 290.813 575.722 291.251 576.004C291.688 576.282 292.171 576.42 292.699 576.42C293.136 576.42 293.547 576.319 293.931 576.116C294.315 575.914 294.635 575.65 294.891 575.324ZM297.194 569.332H298.314V577.332H297.194V569.332ZM297.762 567.932C297.581 567.932 297.426 567.874 297.298 567.756C297.176 567.634 297.114 567.482 297.114 567.3C297.114 567.119 297.176 566.97 297.298 566.852C297.426 566.73 297.581 566.668 297.762 566.668C297.938 566.668 298.088 566.73 298.21 566.852C298.338 566.97 298.402 567.119 298.402 567.3C298.402 567.482 298.341 567.634 298.218 567.756C298.096 567.874 297.944 567.932 297.762 567.932ZM303.683 577.54C302.947 577.54 302.275 577.351 301.667 576.972C301.064 576.594 300.582 576.087 300.219 575.452C299.862 574.812 299.683 574.106 299.683 573.332C299.683 572.746 299.787 572.199 299.995 571.692C300.203 571.18 300.488 570.732 300.851 570.348C301.219 569.959 301.646 569.655 302.131 569.436C302.616 569.218 303.134 569.108 303.683 569.108C304.275 569.108 304.819 569.226 305.315 569.46C305.816 569.695 306.246 570.023 306.603 570.444C306.966 570.866 307.238 571.359 307.419 571.924C307.606 572.49 307.683 573.1 307.651 573.756H300.867C300.931 574.263 301.091 574.716 301.347 575.116C301.608 575.516 301.939 575.834 302.339 576.068C302.744 576.298 303.192 576.415 303.683 576.42C304.216 576.42 304.696 576.282 305.123 576.004C305.555 575.727 305.902 575.346 306.163 574.86L307.299 575.124C306.979 575.834 306.496 576.415 305.851 576.868C305.206 577.316 304.483 577.54 303.683 577.54ZM300.835 572.852H306.523C306.486 572.356 306.334 571.903 306.067 571.492C305.806 571.076 305.467 570.746 305.051 570.5C304.635 570.25 304.179 570.124 303.683 570.124C303.187 570.124 302.734 570.247 302.323 570.492C301.912 570.732 301.576 571.06 301.315 571.476C301.054 571.887 300.894 572.346 300.835 572.852ZM311.51 577.484C311.073 577.474 310.646 577.394 310.23 577.244C309.814 577.095 309.451 576.892 309.142 576.636C308.833 576.38 308.611 576.09 308.478 575.764L309.446 575.348C309.531 575.556 309.689 575.748 309.918 575.924C310.153 576.095 310.419 576.234 310.718 576.34C311.017 576.442 311.313 576.492 311.606 576.492C311.931 576.492 312.235 576.439 312.518 576.332C312.801 576.226 313.03 576.074 313.206 575.876C313.387 575.674 313.478 575.436 313.478 575.164C313.478 574.871 313.382 574.642 313.19 574.476C312.998 574.306 312.755 574.172 312.462 574.076C312.169 573.975 311.867 573.879 311.558 573.788C310.993 573.634 310.494 573.463 310.062 573.276C309.63 573.09 309.291 572.852 309.046 572.564C308.806 572.271 308.686 571.895 308.686 571.436C308.686 570.951 308.822 570.532 309.094 570.18C309.371 569.823 309.731 569.548 310.174 569.356C310.622 569.159 311.099 569.06 311.606 569.06C312.257 569.06 312.849 569.202 313.382 569.484C313.921 569.767 314.31 570.143 314.55 570.612L313.646 571.148C313.55 570.93 313.398 570.74 313.19 570.58C312.982 570.42 312.745 570.295 312.478 570.204C312.217 570.114 311.95 570.066 311.678 570.06C311.337 570.055 311.019 570.106 310.726 570.212C310.433 570.314 310.195 570.466 310.014 570.668C309.838 570.871 309.75 571.119 309.75 571.412C309.75 571.706 309.838 571.93 310.014 572.084C310.19 572.234 310.427 572.356 310.726 572.452C311.03 572.543 311.371 572.65 311.75 572.772C312.235 572.927 312.691 573.103 313.118 573.3C313.545 573.498 313.889 573.743 314.15 574.036C314.411 574.33 314.539 574.7 314.534 575.148C314.534 575.628 314.39 576.047 314.102 576.404C313.814 576.762 313.441 577.036 312.982 577.228C312.523 577.415 312.033 577.5 311.51 577.484Z" fill="#F9FBFF"/>
<path d="M180.02 610.531C180.287 608.778 178.927 607.835 177.068 607.206L177.671 604.831L176.199 604.47L175.612 606.783C175.225 606.688 174.828 606.599 174.433 606.51L175.024 604.182L173.553 603.822L172.949 606.197C172.629 606.125 172.314 606.054 172.009 605.98L172.011 605.972L169.98 605.474L169.589 607.019C169.589 607.019 170.681 607.265 170.658 607.28C171.254 607.426 171.362 607.813 171.344 608.121L170.657 610.827C170.698 610.837 170.752 610.852 170.81 610.875C170.761 610.863 170.709 610.85 170.655 610.837L169.692 614.628C169.619 614.806 169.434 615.073 169.017 614.971C169.032 614.992 167.947 614.709 167.947 614.709L167.216 616.364L169.132 616.833C169.489 616.921 169.838 617.013 170.182 617.099L169.572 619.502L171.043 619.862L171.646 617.485C172.048 617.592 172.438 617.691 172.82 617.784L172.218 620.15L173.69 620.51L174.3 618.112C176.81 618.579 178.698 618.391 179.493 616.161C180.133 614.365 179.461 613.329 178.14 612.654C179.102 612.436 179.826 611.815 180.02 610.531V610.531ZM176.656 615.164C176.201 616.959 173.123 615.988 172.125 615.745L172.933 612.562C173.931 612.807 177.131 613.291 176.656 615.164ZM177.111 610.505C176.696 612.138 174.134 611.309 173.303 611.105L174.036 608.218C174.867 608.422 177.544 608.801 177.111 610.505Z" fill="#F89C2C"/>
<rect x="159.1" y="597.632" width="29.0687" height="29.0687" rx="14.5344" stroke="#4E4E4E" stroke-width="0.598758"/>
<path fill-rule="evenodd" clip-rule="evenodd" d="M206.4 603.686C206.382 603.686 206.324 603.686 206.28 603.772C206.222 603.882 201.76 612.441 200.899 614.094H202.872L204.069 611.696C204.119 611.596 204.213 611.541 204.312 611.539L204.315 611.538L204.318 611.538L204.321 611.537H211.549C211.447 611.347 211.317 611.104 211.16 610.81L211.12 610.735L211.12 610.734L211.12 610.734C210.925 610.369 210.707 609.962 210.587 609.739L205.73 609.746H205.73L205.728 609.745L205.604 609.746H205.604H205.603C205.603 609.746 205.603 609.745 205.603 609.745C205.581 609.745 205.56 609.742 205.539 609.737C205.536 609.736 205.532 609.735 205.529 609.734L205.522 609.731C205.506 609.726 205.491 609.719 205.477 609.711C205.475 609.711 205.474 609.71 205.472 609.71C205.47 609.709 205.468 609.708 205.466 609.707C205.465 609.706 205.463 609.705 205.462 609.704C205.461 609.703 205.459 609.701 205.457 609.7C205.449 609.695 205.441 609.689 205.433 609.682L205.432 609.681L205.432 609.681C205.425 609.676 205.419 609.67 205.413 609.664C205.408 609.659 205.403 609.653 205.398 609.647L205.398 609.647L205.398 609.647L205.394 609.643C205.388 609.636 205.382 609.628 205.377 609.621C205.373 609.614 205.369 609.607 205.365 609.601L205.363 609.596C205.358 609.588 205.354 609.58 205.35 609.571C205.346 609.563 205.344 609.555 205.341 609.546L205.34 609.544L205.339 609.542C205.337 609.533 205.334 609.525 205.332 609.516C205.33 609.507 205.328 609.498 205.327 609.489C205.326 609.478 205.325 609.467 205.324 609.456L205.324 609.452V609.452V609.452C205.324 609.45 205.323 609.447 205.323 609.445C205.323 609.442 205.324 609.439 205.324 609.437C205.324 609.435 205.325 609.432 205.325 609.43C205.325 609.419 205.326 609.408 205.328 609.397C205.329 609.388 205.331 609.379 205.333 609.37C205.336 609.36 205.338 609.351 205.341 609.341C205.345 609.331 205.349 609.322 205.353 609.312L205.355 609.306L205.355 609.306L205.355 609.306C205.356 609.303 205.357 609.301 205.359 609.298L208.29 603.687L206.4 603.686ZM212.559 607.212L213.509 609.016H215.509C215.362 608.758 215.105 608.305 214.891 607.926L214.532 607.295C214.506 607.248 214.448 607.213 214.399 607.213L212.559 607.212ZM209.984 620.025C210.003 620.025 210.061 620.025 210.105 619.94L215.486 609.617H213.512L212.315 611.982C212.285 612.042 212.237 612.085 212.182 612.111C212.176 612.114 212.17 612.116 212.164 612.119C212.152 612.123 212.141 612.127 212.129 612.13C212.113 612.134 212.097 612.136 212.081 612.137L212.079 612.138L212.076 612.138C212.074 612.139 212.071 612.139 212.069 612.139C212.068 612.139 212.068 612.139 212.067 612.139L212.066 612.139L212.065 612.139H204.808L205.798 613.973L210.781 613.966H210.781C210.881 613.966 210.972 614.023 211.023 614.115C211.073 614.207 211.074 614.32 211.026 614.414L208.102 620.025C208.376 620.025 208.835 620.025 209.232 620.025H209.984ZM207.615 619.727L207.379 619.311C207.077 618.778 206.689 618.095 206.646 618.02C206.631 617.995 206.624 617.933 206.655 617.874C206.725 617.74 208.048 615.192 208.37 614.571L210.302 614.568L207.615 619.727ZM203.361 614.391L204.321 616.215C204.527 615.803 204.998 614.855 205.299 614.248L204.329 612.451L203.361 614.391ZM203.032 616.499L202.131 616.499L201.985 616.499H201.985C201.937 616.499 201.879 616.463 201.853 616.417L201.54 615.866C201.318 615.473 201.034 614.973 200.876 614.696H202.877L203.826 616.499L203.497 616.499L203.032 616.499ZM208.773 603.992L208.949 604.3C209.257 604.844 209.692 605.611 209.738 605.691C209.753 605.716 209.76 605.778 209.729 605.837L208.013 609.141L206.082 609.143L208.773 603.992ZM213.024 609.32L212.063 607.495C211.887 607.839 211.523 608.551 211.268 609.05C211.189 609.205 211.12 609.339 211.071 609.436C211.181 609.641 211.378 610.007 211.646 610.511C211.782 610.766 211.928 611.037 212.044 611.255L213.024 609.32Z" fill="#EDF3FF"/>
<rect x="193.924" y="597.626" width="28.4605" height="28.4605" rx="14.2303" stroke="#4E4E4E" stroke-width="0.58623"/>
<path d="M242.182 607.495C241.769 607.489 241.376 607.556 241.003 607.696C240.636 607.83 240.337 608.013 240.104 608.246C239.871 608.479 239.754 608.747 239.754 609.049C239.754 609.44 239.862 609.734 240.078 609.932C240.299 610.129 240.593 610.275 240.96 610.368C241.326 610.456 241.734 610.537 242.182 610.613C242.997 610.741 243.751 610.956 244.444 611.259C245.137 611.562 245.693 611.966 246.112 612.473C246.531 612.974 246.741 613.588 246.741 614.316C246.741 614.979 246.569 615.57 246.226 616.088C245.882 616.601 245.419 617.02 244.837 617.346C244.261 617.672 243.62 617.879 242.916 617.966V619.748H241.457V617.966C240.869 617.896 240.316 617.748 239.798 617.521C239.28 617.294 238.829 616.997 238.444 616.63C238.066 616.263 237.787 615.835 237.606 615.346L239.606 614.613C239.687 614.845 239.853 615.058 240.104 615.25C240.354 615.442 240.66 615.596 241.021 615.713C241.382 615.829 241.769 615.888 242.182 615.888C242.607 615.888 243.003 615.824 243.37 615.695C243.743 615.562 244.042 615.378 244.27 615.145C244.497 614.907 244.61 614.63 244.61 614.316C244.61 613.995 244.491 613.733 244.252 613.53C244.013 613.32 243.708 613.154 243.335 613.032C242.962 612.91 242.578 612.816 242.182 612.752C241.315 612.618 240.538 612.412 239.85 612.132C239.163 611.853 238.619 611.466 238.217 610.971C237.821 610.476 237.624 609.835 237.624 609.049C237.624 608.386 237.795 607.795 238.139 607.277C238.488 606.758 238.951 606.339 239.527 606.019C240.11 605.693 240.753 605.486 241.457 605.399V603.609H242.916V605.399C243.492 605.469 244.04 605.617 244.558 605.844C245.076 606.071 245.527 606.371 245.911 606.744C246.301 607.111 246.587 607.542 246.767 608.036L244.759 608.761C244.677 608.528 244.511 608.316 244.261 608.124C244.01 607.932 243.705 607.78 243.344 607.67C242.983 607.553 242.596 607.495 242.182 607.495Z" fill="#05A50C"/>
<rect x="228.13" y="597.622" width="28.1125" height="28.1125" rx="14.0563" stroke="#4E4E4E" stroke-width="0.579062"/>
<path d="M280.409 618.123C279.63 618.252 278.88 618.237 278.159 618.08C277.438 617.922 276.775 617.645 276.171 617.248C275.572 616.851 275.054 616.358 274.618 615.769C274.182 615.173 273.854 614.502 273.633 613.755H272.028V612.293H273.371V611.444H272.028V609.983H273.633C273.848 609.224 274.177 608.547 274.618 607.952C275.06 607.351 275.584 606.852 276.188 606.455C276.793 606.058 277.453 605.784 278.168 605.632C278.883 605.474 279.63 605.46 280.409 605.588V607.794C279.921 607.66 279.45 607.619 278.996 607.672C278.549 607.718 278.127 607.844 277.732 608.048C277.342 608.252 276.993 608.518 276.685 608.845C276.377 609.171 276.127 609.551 275.935 609.983H278.299V611.444H275.499L275.517 612.293H278.299V613.755L275.953 613.755C276.15 614.193 276.403 614.575 276.712 614.902C277.025 615.229 277.38 615.491 277.775 615.69C278.171 615.882 278.589 616.002 279.031 616.049C279.479 616.09 279.938 616.046 280.409 615.917V618.123Z" fill="#2E75FF"/>
<rect x="261.989" y="597.626" width="28.4605" height="28.4605" rx="14.2303" stroke="#4E4E4E" stroke-width="0.58623"/>
<path d="M306.212 618.387V616.195C306.511 616.195 306.816 616.156 307.126 616.078C307.437 616 307.713 615.889 307.953 615.745C308.199 615.595 308.372 615.416 308.472 615.206C308.578 614.996 308.575 614.763 308.463 614.505C308.405 614.277 308.302 614.061 308.155 613.858C308.009 613.648 307.842 613.441 307.654 613.238C307.466 613.028 307.276 612.815 307.082 612.6C306.889 612.378 306.71 612.147 306.546 611.907C306.382 611.662 306.25 611.401 306.15 611.126C306.05 610.844 306.001 610.541 306.001 610.218C306.001 609.577 306.118 608.978 306.352 608.42C306.593 607.863 306.921 607.372 307.337 606.946C307.76 606.515 308.243 606.179 308.789 605.94C309.334 605.694 309.92 605.571 310.548 605.571C311.175 605.571 311.764 605.694 312.316 605.94C312.867 606.179 313.351 606.512 313.767 606.937C314.189 607.363 314.517 607.857 314.752 608.42C314.986 608.978 315.104 609.577 315.104 610.218H312.958C312.958 609.768 312.849 609.358 312.632 608.987C312.415 608.615 312.122 608.319 311.753 608.097C311.389 607.875 310.988 607.764 310.548 607.764C310.108 607.764 309.706 607.875 309.343 608.097C308.979 608.319 308.689 608.615 308.472 608.987C308.255 609.358 308.147 609.768 308.147 610.218C308.147 610.589 308.208 610.913 308.331 611.189C308.454 611.464 308.613 611.716 308.806 611.943C309 612.171 309.205 612.393 309.422 612.609C309.645 612.818 309.853 613.043 310.046 613.283C310.24 613.522 310.398 613.795 310.521 614.1C310.645 614.4 310.706 614.757 310.706 615.17C310.706 615.314 310.683 615.455 310.636 615.592C310.589 615.724 310.533 615.844 310.469 615.952C310.404 616.06 310.337 616.141 310.266 616.195H314.928V618.387H306.212ZM306.212 614.379V612.878H312.984V614.379H306.212Z" fill="white"/>
<rect x="296.201" y="597.628" width="28.7028" height="28.7028" rx="14.3514" stroke="#4E4E4E" stroke-width="0.59122"/>
</g>
<defs>
<filter id="filter0_d_1_23" x="122.909" y="109.59" width="257.222" height="437.152" filterUnits="userSpaceOnUse" color-interpolation-filters="sRGB">
<feFlood flood-opacity="0" result="BackgroundImageFix"/>
<feColorMatrix in="SourceAlpha" type="matrix" values="0 0 0 0 0 0 0 0 0 0 0 0 0 0 0 0 0 0 127 0" result="hardAlpha"/>
<feOffset dx="9.51999"/>
<feGaussianBlur stdDeviation="23.205"/>
<feComposite in2="hardAlpha" operator="out"/>
<feColorMatrix type="matrix" values="0 0 0 0 0 0 0 0 0 0 0 0 0 0 0 0 0 0 0.6 0"/>
<feBlend mode="normal" in2="BackgroundImageFix" result="effect1_dropShadow_1_23"/>
<feBlend mode="normal" in="SourceGraphic" in2="effect1_dropShadow_1_23" result="shape"/>
</filter>
<radialGradient id="paint0_radial_1_23" cx="0" cy="0" r="1" gradientUnits="userSpaceOnUse" gradientTransform="translate(-47.0457 507.638) rotate(3.758) scale(318.461 261.215)">
<stop offset="0.3309" stop-color="#2E75FF"/>
<stop offset="1" stop-color="#2E75FF" stop-opacity="0"/>
</radialGradient>
<linearGradient id="paint1_linear_1_23" x1="164.799" y1="161" x2="319.201" y2="495.332" gradientUnits="userSpaceOnUse">
<stop stop-color="#474747"/>
<stop offset="1" stop-opacity="0.9"/>
</linearGradient>
<clipPath id="clip0_1_23">
<rect width="484" height="812" fill="white"/>
</clipPath>
<clipPath id="clip1_1_23">
<rect x="164.799" y="161" width="154.402" height="334.332" rx="23.0574" fill="white"/>
</clipPath>
</defs>
</svg>
