<svg width="98" height="32" viewBox="0 0 98 32" fill="none" xmlns="http://www.w3.org/2000/svg">
<path d="M25.9477 13.4525C26.3639 10.7205 24.2459 9.25186 21.3498 8.27212L22.2893 4.57131L19.9956 4.0099L19.0809 7.61318C18.478 7.46561 17.8586 7.32639 17.2432 7.18845L18.1644 3.56141L15.8719 3L14.9319 6.69952C14.4327 6.58788 13.9428 6.47754 13.4672 6.36141L13.4698 6.34986L10.3065 5.57414L9.69636 7.98018C9.69636 7.98018 11.3982 8.36322 11.3623 8.38696C12.2912 8.61473 12.4591 9.21848 12.431 9.69713L11.3609 13.9132C11.425 13.9292 11.5079 13.9523 11.5994 13.9882C11.523 13.9696 11.4413 13.9491 11.357 13.9292L9.85705 19.8352C9.74338 20.1124 9.45529 20.5282 8.80591 20.3703C8.82878 20.4031 7.1387 19.9616 7.1387 19.9616L6 22.5403L8.98491 23.271C9.54021 23.4077 10.0844 23.5508 10.6201 23.6855L9.67088 27.4287L11.962 27.9901L12.9021 24.2867C13.5279 24.4535 14.1355 24.6075 14.73 24.7525L13.7932 28.4386L16.0869 29L17.0361 25.2639C20.9474 25.9908 23.8885 25.6976 25.1265 22.2233C26.1241 19.4259 25.0769 17.8122 23.019 16.76C24.5177 16.4206 25.6466 15.4524 25.9477 13.4525V13.4525ZM20.707 20.67C19.9982 23.4674 15.2023 21.9551 13.6475 21.5759L14.907 16.6169C16.4619 16.998 21.4478 17.7526 20.707 20.67ZM21.4165 13.4121C20.7697 15.9567 16.7781 14.6638 15.4832 14.3469L16.6252 9.84921C17.92 10.1662 22.09 10.7577 21.4165 13.4121Z" fill="#2E75FF"/>
<path d="M35.2 23V9H39.93C40.61 9 41.2267 9.14 41.78 9.42C42.34 9.69333 42.7833 10.0967 43.11 10.63C43.4433 11.1567 43.61 11.7967 43.61 12.55C43.61 12.9767 43.5333 13.3833 43.38 13.77C43.2267 14.1567 43.0267 14.4867 42.78 14.76C42.5333 15.0267 42.2667 15.2 41.98 15.28C42.3933 15.3867 42.75 15.5733 43.05 15.84C43.35 16.1 43.5967 16.41 43.79 16.77C43.9833 17.1233 44.1233 17.4967 44.21 17.89C44.3033 18.2833 44.35 18.67 44.35 19.05C44.35 19.8367 44.1767 20.5267 43.83 21.12C43.49 21.7133 43.0333 22.1767 42.46 22.51C41.8867 22.8367 41.25 23 40.55 23H35.2ZM36.6 21.75H40.44C40.9267 21.75 41.3667 21.6233 41.76 21.37C42.16 21.1167 42.4767 20.77 42.71 20.33C42.95 19.89 43.07 19.3933 43.07 18.84C43.07 18.3467 42.95 17.8833 42.71 17.45C42.4767 17.01 42.16 16.6567 41.76 16.39C41.3667 16.1167 40.9267 15.98 40.44 15.98H36.6V21.75ZM36.6 14.75H39.81C40.47 14.75 41.0333 14.56 41.5 14.18C41.9733 13.7933 42.21 13.2467 42.21 12.54C42.21 11.7667 41.9733 11.1933 41.5 10.82C41.0333 10.44 40.47 10.25 39.81 10.25H36.6V14.75ZM56.1416 9V10.4H51.3416V23H49.9416V10.4H45.1516V9H56.1416ZM63.8284 23.26C62.8818 23.26 61.9918 23.0733 61.1584 22.7C60.3251 22.32 59.5918 21.8 58.9584 21.14C58.3318 20.4733 57.8384 19.7 57.4784 18.82C57.1251 17.94 56.9484 17 56.9484 16C56.9484 15 57.1251 14.06 57.4784 13.18C57.8384 12.3 58.3318 11.53 58.9584 10.87C59.5918 10.2033 60.3251 9.68333 61.1584 9.31C61.9918 8.93 62.8818 8.74 63.8284 8.74C64.9618 8.74 66.0051 9.00333 66.9584 9.53C67.9118 10.0567 68.7018 10.7567 69.3284 11.63L68.0884 12.3C67.5951 11.64 66.9684 11.1167 66.2084 10.73C65.4551 10.3367 64.6618 10.14 63.8284 10.14C63.0618 10.14 62.3451 10.2967 61.6784 10.61C61.0184 10.9167 60.4384 11.34 59.9384 11.88C59.4384 12.42 59.0484 13.0433 58.7684 13.75C58.4884 14.4567 58.3484 15.2067 58.3484 16C58.3484 16.8067 58.4884 17.5633 58.7684 18.27C59.0551 18.9767 59.4484 19.6 59.9484 20.14C60.4551 20.68 61.0384 21.1033 61.6984 21.41C62.3651 21.71 63.0751 21.86 63.8284 21.86C64.6951 21.86 65.4984 21.6633 66.2384 21.27C66.9851 20.87 67.6018 20.35 68.0884 19.71L69.3284 20.38C68.7018 21.2533 67.9118 21.9533 66.9584 22.48C66.0051 23 64.9618 23.26 63.8284 23.26Z" fill="#2E75FF"/>
</svg>
