<svg width="32" height="32" viewBox="0 0 32 32" fill="none" xmlns="http://www.w3.org/2000/svg">
<rect x="0.322917" y="0.322917" width="31.3542" height="31.3542" rx="15.6771" fill="white"/>
<path d="M25.9477 13.4525C26.3639 10.7205 24.2459 9.25186 21.3498 8.27212L22.2893 4.57131L19.9956 4.0099L19.0809 7.61318C18.478 7.46561 17.8586 7.32639 17.2432 7.18845L18.1644 3.56141L15.8719 3L14.9319 6.69952C14.4327 6.58788 13.9428 6.47754 13.4672 6.36141L13.4698 6.34986L10.3065 5.57414L9.69636 7.98018C9.69636 7.98018 11.3982 8.36322 11.3623 8.38696C12.2912 8.61473 12.4591 9.21848 12.431 9.69713L11.3609 13.9132C11.425 13.9292 11.5079 13.9523 11.5994 13.9882C11.523 13.9696 11.4413 13.9491 11.357 13.9292L9.85705 19.8352C9.74338 20.1124 9.45529 20.5282 8.80591 20.3703C8.82878 20.4031 7.1387 19.9616 7.1387 19.9616L6 22.5403L8.98491 23.271C9.54021 23.4077 10.0844 23.5508 10.6201 23.6855L9.67088 27.4287L11.962 27.9901L12.9021 24.2867C13.5279 24.4535 14.1355 24.6075 14.73 24.7525L13.7932 28.4386L16.0869 29L17.0361 25.2639C20.9474 25.9908 23.8885 25.6976 25.1265 22.2233C26.1241 19.4259 25.0769 17.8122 23.019 16.76C24.5177 16.4206 25.6466 15.4524 25.9477 13.4525V13.4525ZM20.707 20.67C19.9982 23.4674 15.2023 21.9551 13.6475 21.5759L14.907 16.6169C16.4619 16.998 21.4478 17.7526 20.707 20.67ZM21.4165 13.4121C20.7697 15.9567 16.7781 14.6638 15.4832 14.3469L16.6252 9.84921C17.92 10.1662 22.09 10.7577 21.4165 13.4121Z" fill="#F89C2C"/>
<rect x="0.322917" y="0.322917" width="31.3542" height="31.3542" rx="15.6771" stroke="#F5F5F5" stroke-width="0.645833"/>
</svg>
