<svg width="16" height="26" viewBox="0 0 16 26" fill="none" xmlns="http://www.w3.org/2000/svg">
<path d="M7.9929 6.26082C7.32695 6.25144 6.69384 6.35931 6.09355 6.58442C5.50264 6.80015 5.01959 7.0956 4.64441 7.47078C4.26923 7.84596 4.08164 8.27742 4.08164 8.76515C4.08164 9.39358 4.25516 9.86724 4.60221 10.1861C4.95863 10.5051 5.43229 10.7395 6.0232 10.8896C6.61411 11.0303 7.27068 11.1616 7.9929 11.2836C9.30603 11.4899 10.5207 11.8369 11.6368 12.3247C12.753 12.8124 13.6487 13.4643 14.3241 14.2803C14.9994 15.0869 15.3371 16.0765 15.3371 17.2489C15.3371 18.3182 15.0604 19.2702 14.507 20.105C13.9536 20.9304 13.2079 21.6057 12.27 22.131C11.3414 22.6562 10.3096 22.9892 9.17472 23.1299V26H6.82515V23.1299C5.87782 23.0173 4.98677 22.7781 4.15199 22.4123C3.31721 22.0465 2.5903 21.5682 1.97125 20.9773C1.36159 20.3864 0.91137 19.697 0.620605 18.9091L3.84247 17.7273C3.97378 18.1025 4.2411 18.4448 4.64441 18.7543C5.04773 19.0639 5.54016 19.3124 6.12169 19.5C6.70322 19.6876 7.32695 19.7814 7.9929 19.7814C8.6776 19.7814 9.31541 19.6782 9.90632 19.4719C10.5066 19.2561 10.9897 18.9607 11.3555 18.5855C11.7213 18.2009 11.9042 17.7554 11.9042 17.2489C11.9042 16.733 11.7119 16.311 11.3273 15.9827C10.9428 15.645 10.4503 15.3777 9.85004 15.1807C9.24975 14.9838 8.63071 14.8337 7.9929 14.7305C6.59535 14.5148 5.34319 14.1818 4.23641 13.7316C3.12962 13.2814 2.25264 12.6576 1.60545 11.8604C0.967647 11.0631 0.648744 10.0314 0.648744 8.76515C0.648744 7.69589 0.925439 6.74387 1.47883 5.90909C2.0416 5.07431 2.78727 4.39899 3.71584 3.88312C4.65379 3.35786 5.69023 3.02489 6.82515 2.8842V0H9.17472V2.8842C10.1033 2.99675 10.985 3.23593 11.8197 3.60173C12.6545 3.96753 13.3814 4.45058 14.0005 5.05087C14.6289 5.64178 15.0885 6.33586 15.3793 7.13312L12.1433 8.30087C12.012 7.92569 11.7447 7.58333 11.3414 7.27381C10.9381 6.96429 10.4456 6.72042 9.86411 6.54221C9.28258 6.35462 8.65884 6.26082 7.9929 6.26082Z" fill="black"/>
</svg>
