<svg width="98" height="32" viewBox="0 0 98 32" fill="none" xmlns="http://www.w3.org/2000/svg">
<path d="M22.752 26.0612C21.4967 26.2673 20.2882 26.2439 19.1266 25.9909C17.9649 25.738 16.897 25.293 15.9227 24.656C14.9578 24.019 14.1241 23.2274 13.4215 22.2812C12.7189 21.3257 12.1896 20.2484 11.8336 19.0493H9.24805V16.7026H11.412V15.3395H9.24805V12.9929H11.8336C12.1802 11.775 12.7095 10.6883 13.4215 9.73282C14.1334 8.76791 14.9766 7.96695 15.9508 7.32993C16.9251 6.69291 17.9884 6.25261 19.1406 6.00905C20.2929 5.75611 21.4967 5.73269 22.752 5.93879V9.47988C21.9651 9.26442 21.2063 9.19884 20.4756 9.28315C19.7542 9.3581 19.075 9.55951 18.438 9.88739C17.8104 10.2153 17.2483 10.6415 16.7518 11.1661C16.2553 11.6907 15.8525 12.2996 15.5433 12.9929H19.3514V15.3395H14.8407L14.8688 16.7026H19.3514V19.0493H15.5714C15.8899 19.7519 16.2974 20.3655 16.7939 20.8901C17.2998 21.4147 17.8713 21.8362 18.5083 22.1547C19.1453 22.4639 19.8198 22.6559 20.5318 22.7309C21.2531 22.7965 21.9932 22.7262 22.752 22.5201V26.0612Z" fill="#2E75FF"/>
<path d="M35.2 23V9H43.72V10.4H36.6V14.8H42.49V16.2H36.6V21.6H43.72V23H35.2ZM51.3527 23.26C50.2327 23.26 49.266 22.9867 48.4527 22.44C47.6393 21.8933 47.0127 21.16 46.5727 20.24C46.1393 19.3133 45.9227 18.2867 45.9227 17.16V9H47.3227V17.16C47.3227 18.0133 47.4793 18.7967 47.7927 19.51C48.106 20.2233 48.5627 20.7933 49.1627 21.22C49.7627 21.6467 50.4927 21.86 51.3527 21.86C52.2327 21.86 52.9693 21.6467 53.5627 21.22C54.1627 20.7867 54.616 20.2133 54.9227 19.5C55.2293 18.7867 55.3827 18.0067 55.3827 17.16V9H56.7827V17.16C56.7827 18.0067 56.656 18.8 56.4027 19.54C56.156 20.2733 55.796 20.92 55.3227 21.48C54.856 22.04 54.286 22.4767 53.6127 22.79C52.946 23.1033 52.1927 23.26 51.3527 23.26ZM59.0867 23V9H63.8367C64.5834 9 65.2567 9.18333 65.8567 9.55C66.4567 9.91 66.9334 10.4 67.2867 11.02C67.6401 11.6333 67.8167 12.3233 67.8167 13.09C67.8167 13.7767 67.6767 14.4 67.3967 14.96C67.1167 15.52 66.7334 15.9833 66.2467 16.35C65.7667 16.7167 65.2234 16.96 64.6167 17.08L68.0367 23H66.4167L63.0467 17.19H60.4867V23H59.0867ZM60.4867 15.79H63.7167C64.2101 15.79 64.6601 15.67 65.0667 15.43C65.4801 15.1833 65.8067 14.8533 66.0467 14.44C66.2934 14.02 66.4167 13.5467 66.4167 13.02C66.4167 12.4933 66.2934 12.0233 66.0467 11.61C65.8067 11.19 65.4801 10.86 65.0667 10.62C64.6601 10.3733 64.2101 10.25 63.7167 10.25H60.4867V15.79Z" fill="#2E75FF"/>
</svg>
