<svg width="32" height="32" viewBox="0 0 32 32" fill="none" xmlns="http://www.w3.org/2000/svg">
<g clip-path="url(#clip0_201_886)">
<path d="M19.6887 22.472C18.9145 22.5992 18.1692 22.5847 17.4527 22.4287C16.7363 22.2727 16.0776 21.9983 15.4767 21.6054C14.8816 21.2125 14.3674 20.7243 13.9341 20.1407C13.5007 19.5514 13.1743 18.8869 12.9547 18.1474H11.3601V16.7H12.6947V15.8594H11.3601V14.412H12.9547C13.1685 13.6609 13.495 12.9907 13.9341 12.4014C14.3732 11.8063 14.8932 11.3123 15.4941 10.9194C16.095 10.5265 16.7507 10.2549 17.4614 10.1047C18.1721 9.94871 18.9145 9.93426 19.6887 10.0614V12.2454C19.2034 12.1125 18.7354 12.072 18.2847 12.124C17.8399 12.1703 17.421 12.2945 17.0281 12.4967C16.641 12.6989 16.2943 12.9618 15.9881 13.2854C15.6819 13.6089 15.4334 13.9845 15.2427 14.412H17.5914V15.8594H14.8094L14.8267 16.7H17.5914V18.1474H15.2601C15.4565 18.5807 15.7079 18.9592 16.0141 19.2827C16.3261 19.6063 16.6785 19.8663 17.0714 20.0627C17.4643 20.2534 17.8803 20.3718 18.3194 20.418C18.7643 20.4585 19.2207 20.4152 19.6887 20.288V22.472Z" fill="#2E75FF"/>
</g>
<defs>
<clipPath id="clip0_201_886">
<rect width="32" height="32" rx="16" fill="white"/>
</clipPath>
</defs>
</svg>
