<svg width="32" height="32" viewBox="0 0 32 32" fill="none" xmlns="http://www.w3.org/2000/svg">
<g clip-path="url(#clip0_201_866)">
<path d="M11.5681 22.3334V20.2187C11.8627 20.2187 12.1632 20.1812 12.4694 20.106C12.7756 20.0309 13.0472 19.924 13.2841 19.7854C13.5267 19.6409 13.6972 19.4676 13.7954 19.2654C13.8994 19.0632 13.8965 18.8378 13.7867 18.5894C13.729 18.3698 13.6279 18.1618 13.4834 17.9654C13.339 17.7632 13.1743 17.5638 12.9894 17.3674C12.8045 17.1652 12.6167 16.96 12.4261 16.752C12.2354 16.5383 12.0592 16.3158 11.8974 16.0847C11.7356 15.8478 11.6056 15.5965 11.5074 15.3307C11.4092 15.0592 11.3601 14.7674 11.3601 14.4554C11.3601 13.8372 11.4756 13.2594 11.7067 12.722C11.9436 12.1847 12.2672 11.7109 12.6774 11.3007C13.0934 10.8847 13.5701 10.5612 14.1074 10.33C14.6447 10.0932 15.2225 9.97471 15.8407 9.97471C16.459 9.97471 17.0396 10.0932 17.5827 10.33C18.1259 10.5612 18.6025 10.8818 19.0127 11.292C19.4287 11.7023 19.7523 12.1789 19.9834 12.722C20.2145 13.2594 20.3301 13.8372 20.3301 14.4554H18.2154C18.2154 14.022 18.1085 13.6263 17.8947 13.268C17.681 12.9098 17.3921 12.6238 17.0281 12.41C16.6699 12.1963 16.2741 12.0894 15.8407 12.0894C15.4074 12.0894 15.0116 12.1963 14.6534 12.41C14.2952 12.6238 14.0092 12.9098 13.7954 13.268C13.5816 13.6263 13.4747 14.022 13.4747 14.4554C13.4747 14.8136 13.5354 15.1256 13.6567 15.3914C13.7781 15.6572 13.9341 15.8998 14.1247 16.1194C14.3154 16.3389 14.5176 16.5527 14.7314 16.7607C14.951 16.9629 15.1561 17.1796 15.3467 17.4107C15.5374 17.6418 15.6934 17.9047 15.8147 18.1994C15.9361 18.4883 15.9967 18.832 15.9967 19.2307C15.9967 19.3694 15.9736 19.5052 15.9274 19.638C15.8812 19.7652 15.8263 19.8807 15.7627 19.9847C15.6992 20.0887 15.6327 20.1667 15.5634 20.2187H20.1567V22.3334H11.5681ZM11.5681 18.468V17.0207H18.2414V18.468H11.5681Z" fill="#2E75FF"/>
</g>
<defs>
<clipPath id="clip0_201_866">
<rect width="32" height="32" rx="16" fill="white"/>
</clipPath>
</defs>
</svg>
