<svg width="98" height="32" viewBox="0 0 98 32" fill="none" xmlns="http://www.w3.org/2000/svg">
<path d="M9.09088 26.2V22.7094C9.56688 22.7094 10.0522 22.6474 10.5469 22.5234C11.0415 22.3994 11.4802 22.223 11.8629 21.9941C12.2549 21.7557 12.5302 21.4696 12.6889 21.1358C12.8569 20.802 12.8522 20.43 12.6749 20.0199C12.5815 19.6575 12.4182 19.3142 12.1849 18.9899C11.9515 18.6561 11.6855 18.3271 11.3869 18.0028C11.0882 17.669 10.7849 17.3304 10.4769 16.9871C10.1689 16.6342 9.88422 16.267 9.62288 15.8855C9.36155 15.4945 9.15155 15.0797 8.99288 14.6409C8.83422 14.1927 8.75488 13.7111 8.75488 13.1961C8.75488 12.1756 8.94155 11.2219 9.31488 10.3349C9.69755 9.44796 10.2202 8.66591 10.8829 7.98877C11.5549 7.30209 12.3249 6.76801 13.1929 6.38652C14.0609 5.9955 14.9942 5.79999 15.9929 5.79999C16.9915 5.79999 17.9295 5.9955 18.8069 6.38652C19.6842 6.76801 20.4542 7.29732 21.1169 7.97446C21.7889 8.6516 22.3116 9.43842 22.6849 10.3349C23.0582 11.2219 23.2449 12.1756 23.2449 13.1961H19.8289C19.8289 12.4808 19.6562 11.8275 19.3109 11.2362C18.9656 10.6449 18.4989 10.1728 17.9109 9.8199C17.3322 9.46703 16.6929 9.29059 15.9929 9.29059C15.2929 9.29059 14.6535 9.46703 14.0749 9.8199C13.4962 10.1728 13.0342 10.6449 12.6889 11.2362C12.3435 11.8275 12.1709 12.4808 12.1709 13.1961C12.1709 13.7874 12.2689 14.3024 12.4649 14.7411C12.6609 15.1798 12.9129 15.5804 13.2209 15.9428C13.5289 16.3052 13.8555 16.6581 14.2009 17.0014C14.5555 17.3352 14.8869 17.6928 15.1949 18.0743C15.5029 18.4558 15.7549 18.8898 15.9509 19.3761C16.1469 19.853 16.2449 20.4205 16.2449 21.0785C16.2449 21.3074 16.2075 21.5315 16.1329 21.7509C16.0582 21.9607 15.9695 22.1515 15.8669 22.3231C15.7642 22.4948 15.6569 22.6236 15.5449 22.7094H22.9649V26.2H9.09088ZM9.09088 19.8196V17.4306H19.8709V19.8196H9.09088Z" fill="#2E75FF"/>
<path d="M41.69 23.26C40.73 23.26 39.83 23.0733 38.99 22.7C38.1567 22.32 37.4267 21.7967 36.8 21.13C36.1733 20.4567 35.6833 19.6833 35.33 18.81C34.9767 17.93 34.8 16.99 34.8 15.99C34.8 14.97 34.9833 14.02 35.35 13.14C35.7167 12.26 36.22 11.4933 36.86 10.84C37.5 10.18 38.2333 9.66667 39.06 9.3C39.8933 8.93333 40.7767 8.75 41.71 8.75C42.7833 8.75 43.7967 9 44.75 9.5C45.71 10 46.5233 10.71 47.19 11.63L45.94 12.31C45.4067 11.61 44.7633 11.0733 44.01 10.7C43.2633 10.3267 42.4933 10.14 41.7 10.14C40.9467 10.14 40.2367 10.2933 39.57 10.6C38.91 10.9 38.3267 11.32 37.82 11.86C37.3133 12.4 36.9167 13.0233 36.63 13.73C36.3433 14.4367 36.2 15.1967 36.2 16.01C36.2 16.8167 36.3433 17.5733 36.63 18.28C36.9167 18.9867 37.31 19.61 37.81 20.15C38.3167 20.6833 38.9033 21.1033 39.57 21.41C40.2367 21.71 40.95 21.86 41.71 21.86C42.3367 21.86 42.93 21.7533 43.49 21.54C44.0567 21.32 44.5733 21.0133 45.04 20.62C45.5067 20.2267 45.9 19.7667 46.22 19.24C46.5467 18.7133 46.7833 18.14 46.93 17.52H43.15V16.25H48.56C48.54 17.2167 48.3467 18.1233 47.98 18.97C47.6133 19.8167 47.1133 20.5633 46.48 21.21C45.8533 21.85 45.13 22.3533 44.31 22.72C43.4967 23.08 42.6233 23.26 41.69 23.26ZM50.5906 23V9H55.3206C56.0006 9 56.6173 9.14 57.1706 9.42C57.7306 9.69333 58.174 10.0967 58.5006 10.63C58.834 11.1567 59.0006 11.7967 59.0006 12.55C59.0006 12.9767 58.924 13.3833 58.7706 13.77C58.6173 14.1567 58.4173 14.4867 58.1706 14.76C57.924 15.0267 57.6573 15.2 57.3706 15.28C57.784 15.3867 58.1406 15.5733 58.4406 15.84C58.7406 16.1 58.9873 16.41 59.1806 16.77C59.374 17.1233 59.514 17.4967 59.6006 17.89C59.694 18.2833 59.7406 18.67 59.7406 19.05C59.7406 19.8367 59.5673 20.5267 59.2206 21.12C58.8806 21.7133 58.424 22.1767 57.8506 22.51C57.2773 22.8367 56.6406 23 55.9406 23H50.5906ZM51.9906 21.75H55.8306C56.3173 21.75 56.7573 21.6233 57.1506 21.37C57.5506 21.1167 57.8673 20.77 58.1006 20.33C58.3406 19.89 58.4606 19.3933 58.4606 18.84C58.4606 18.3467 58.3406 17.8833 58.1006 17.45C57.8673 17.01 57.5506 16.6567 57.1506 16.39C56.7573 16.1167 56.3173 15.98 55.8306 15.98H51.9906V21.75ZM51.9906 14.75H55.2006C55.8606 14.75 56.424 14.56 56.8906 14.18C57.364 13.7933 57.6006 13.2467 57.6006 12.54C57.6006 11.7667 57.364 11.1933 56.8906 10.82C56.424 10.44 55.8606 10.25 55.2006 10.25H51.9906V14.75ZM61.5672 23V9H66.0472C66.7939 9 67.4672 9.18333 68.0672 9.55C68.6672 9.91 69.1439 10.4 69.4972 11.02C69.8572 11.6333 70.0372 12.3233 70.0372 13.09C70.0372 13.8633 69.8539 14.56 69.4872 15.18C69.1272 15.8 68.6439 16.29 68.0372 16.65C67.4372 17.01 66.7739 17.19 66.0472 17.19H62.9672V23H61.5672ZM62.9672 15.79H65.9372C66.4305 15.79 66.8805 15.67 67.2872 15.43C67.7005 15.1833 68.0272 14.8533 68.2672 14.44C68.5139 14.02 68.6372 13.5467 68.6372 13.02C68.6372 12.4933 68.5139 12.0233 68.2672 11.61C68.0272 11.19 67.7005 10.86 67.2872 10.62C66.8805 10.3733 66.4305 10.25 65.9372 10.25H62.9672V15.79Z" fill="#2E75FF"/>
</svg>
