<svg width="31" height="31" viewBox="0 0 31 31" fill="none" xmlns="http://www.w3.org/2000/svg">
<rect x="0.322917" y="0.322917" width="30.3542" height="30.3542" rx="15.1771" fill="white"/>
<path fill-rule="evenodd" clip-rule="evenodd" d="M13.7171 7.75C13.6981 7.75 13.6396 7.75 13.5943 7.83705C13.5358 7.94896 9.00058 16.6486 8.12501 18.3286H10.1309L11.3471 15.8913C11.3979 15.7897 11.4943 15.7331 11.5942 15.7314C11.5954 15.7312 11.5967 15.731 11.598 15.7307C11.5998 15.7303 11.6016 15.7299 11.6036 15.7299H18.9504C18.8466 15.536 18.7147 15.2893 18.5551 14.9903L18.5143 14.9138L18.5139 14.913C18.3158 14.5423 18.0947 14.1285 17.9727 13.9016L13.0356 13.9087H13.0353L13.0337 13.9084L12.9075 13.9087H12.9073H12.907C12.9067 13.9087 12.9067 13.9084 12.9064 13.9084C12.8841 13.9084 12.8628 13.9052 12.8421 13.8998C12.8384 13.8989 12.8349 13.8977 12.8314 13.8965L12.8247 13.8942C12.8084 13.8889 12.793 13.8821 12.7784 13.8741L12.7753 13.8728L12.7738 13.8722C12.7717 13.8715 12.7698 13.8708 12.7679 13.8696C12.7662 13.8686 12.7648 13.8674 12.7633 13.8662C12.7619 13.865 12.7604 13.8639 12.7588 13.8628C12.7502 13.8572 12.7422 13.851 12.7342 13.8442L12.733 13.8432L12.7329 13.8431C12.7262 13.8376 12.7197 13.8322 12.7135 13.8261C12.7081 13.8206 12.7031 13.8147 12.6982 13.8089L12.6947 13.8048C12.6884 13.7971 12.6823 13.7897 12.6771 13.7817C12.6725 13.7751 12.6687 13.7684 12.6649 13.7616L12.6624 13.7571C12.6577 13.7485 12.6533 13.7402 12.6494 13.7314C12.6459 13.7233 12.6431 13.7147 12.6403 13.7062L12.6395 13.7038L12.6387 13.7014C12.636 13.6928 12.6332 13.6843 12.6312 13.6754C12.629 13.6662 12.6276 13.657 12.6265 13.6479C12.6249 13.6369 12.6238 13.626 12.6235 13.6147L12.623 13.6101C12.6227 13.6079 12.6224 13.6057 12.6224 13.6035C12.6224 13.6004 12.6228 13.5975 12.6231 13.5947C12.6234 13.5926 12.6237 13.5905 12.6238 13.5884C12.6241 13.5771 12.6252 13.5659 12.6268 13.5543C12.6282 13.5451 12.6301 13.536 12.6323 13.5268C12.6348 13.517 12.6376 13.5075 12.6406 13.4978C12.6442 13.4877 12.6481 13.4779 12.6525 13.4684L12.6549 13.4623C12.656 13.4594 12.6571 13.4565 12.6586 13.4536L15.638 7.7503L13.7171 7.75ZM19.977 11.3338L20.9423 13.1671H22.9756C22.8262 12.9045 22.5651 12.4444 22.3468 12.0595L21.9827 11.4179C21.9553 11.3699 21.8971 11.3344 21.8471 11.3344L19.977 11.3338ZM17.3598 24.3571C17.3789 24.3571 17.4377 24.3571 17.483 24.2704L22.9525 13.7783H20.9452L19.7293 16.1815C19.6981 16.2428 19.6492 16.2861 19.594 16.3124C19.588 16.3154 19.5819 16.318 19.5755 16.3207C19.5637 16.3254 19.5518 16.3296 19.5397 16.3325C19.5239 16.3367 19.5074 16.3385 19.4908 16.3396L19.4877 16.3401L19.4854 16.3405C19.4832 16.341 19.481 16.3414 19.4787 16.3414L19.4779 16.3413L19.4767 16.3411C19.4759 16.3411 19.4753 16.3414 19.4748 16.3414H12.0984L13.1054 18.2055L18.1697 18.1984H18.17C18.271 18.1984 18.3643 18.2559 18.4157 18.3494C18.467 18.443 18.4681 18.5585 18.4187 18.6532L15.4472 24.3565C15.7249 24.3565 16.1914 24.3568 16.5958 24.3571H17.3598ZM14.9517 24.0534L14.7118 23.6312C14.4046 23.0891 14.011 22.3951 13.9666 22.319C13.9517 22.2932 13.9448 22.2305 13.9759 22.1707C14.0472 22.0339 15.392 19.4441 15.7196 18.8128L17.6833 18.8102L14.9517 24.0534ZM10.6277 18.6302L11.6037 20.4843C11.8129 20.0653 12.2916 19.1025 12.5982 18.4851L11.6114 16.6586L10.6277 18.6302ZM10.2932 20.773L9.37768 20.7727L9.22961 20.7727H9.22933C9.18075 20.7727 9.12196 20.7363 9.09518 20.6895L8.77747 20.1296C8.55112 19.7305 8.26239 19.2215 8.10229 18.94H10.1355L11.1006 20.7733L10.7657 20.7731L10.2932 20.773ZM16.129 8.06051L16.3074 8.37435C16.6207 8.92684 17.0631 9.7067 17.1101 9.78783C17.125 9.81359 17.1319 9.87606 17.1004 9.93616L15.3567 13.294L13.3938 13.2966L16.129 8.06051ZM20.4496 13.4756L19.473 11.6207C19.2935 11.9709 18.9235 12.6952 18.6642 13.2027C18.5842 13.3594 18.5147 13.4955 18.4647 13.5934C18.577 13.8019 18.7763 14.1746 19.0496 14.6866C19.1879 14.9456 19.3353 15.2216 19.454 15.443L20.4496 13.4756Z" fill="black"/>
<rect x="0.322917" y="0.322917" width="30.3542" height="30.3542" rx="15.1771" stroke="#F5F5F5" stroke-width="0.645833"/>
</svg>
