<svg width="31" height="31" viewBox="0 0 31 31" fill="none" xmlns="http://www.w3.org/2000/svg">
<path fill-rule="evenodd" clip-rule="evenodd" d="M13.717 7.75C13.698 7.75 13.6395 7.75 13.5942 7.83705C13.5357 7.94896 9.00049 16.6486 8.12492 18.3286H10.1308L11.347 15.8913C11.3978 15.7897 11.4942 15.7331 11.5941 15.7314C11.5954 15.7312 11.5966 15.731 11.5979 15.7307C11.5997 15.7303 11.6015 15.7299 11.6035 15.7299H18.9503C18.8465 15.536 18.7146 15.2893 18.5551 14.9903L18.5154 14.916L18.5143 14.9141C18.3161 14.5431 18.0947 14.1287 17.9726 13.9016L13.0355 13.9087H13.0352L13.0336 13.9084L12.9074 13.9087H12.9072H12.9069L12.9066 13.9086L12.9063 13.9084C12.884 13.9084 12.8627 13.9052 12.842 13.8998C12.8383 13.8989 12.8348 13.8977 12.8313 13.8965L12.8246 13.8942C12.8084 13.8889 12.7929 13.8821 12.7783 13.8741C12.7767 13.8733 12.7752 13.8728 12.7737 13.8722C12.7716 13.8715 12.7697 13.8708 12.7678 13.8696C12.7661 13.8686 12.7647 13.8674 12.7632 13.8662L12.7632 13.8662L12.7632 13.8662C12.7622 13.8654 12.7612 13.8646 12.7602 13.8639C12.7597 13.8635 12.7592 13.8632 12.7587 13.8628C12.7501 13.8572 12.7421 13.851 12.7341 13.8442L12.7329 13.8432L12.7328 13.8431C12.7261 13.8376 12.7196 13.8322 12.7134 13.8261C12.708 13.8206 12.7031 13.8147 12.6981 13.8089L12.6946 13.8048C12.6883 13.7971 12.6822 13.7897 12.677 13.7817C12.6724 13.7751 12.6686 13.7684 12.6648 13.7616L12.6623 13.7571C12.6576 13.7485 12.6532 13.7402 12.6494 13.7314C12.6458 13.7233 12.643 13.7147 12.6402 13.7062L12.6394 13.7038L12.6386 13.7014C12.6359 13.6928 12.6332 13.6843 12.6311 13.6754C12.6289 13.6662 12.6276 13.657 12.6264 13.6479C12.6248 13.6369 12.6237 13.626 12.6234 13.6147L12.6229 13.6101C12.6226 13.6079 12.6223 13.6057 12.6223 13.6035C12.6223 13.6004 12.6227 13.5975 12.623 13.5947L12.623 13.5947C12.6232 13.5934 12.6233 13.5922 12.6235 13.591C12.6236 13.5901 12.6236 13.5893 12.6237 13.5884C12.624 13.5771 12.6251 13.5659 12.6267 13.5543C12.6281 13.5451 12.63 13.536 12.6322 13.5268C12.6347 13.517 12.6375 13.5075 12.6405 13.4978C12.6441 13.4877 12.648 13.4779 12.6524 13.4684L12.6548 13.4623C12.6559 13.4594 12.657 13.4565 12.6585 13.4536L15.638 7.7503L13.717 7.75ZM19.977 11.3338L20.9423 13.1671H22.9756C22.8262 12.9045 22.5651 12.4444 22.3468 12.0595L21.9827 11.4179C21.9553 11.3699 21.8971 11.3344 21.8471 11.3344L19.977 11.3338ZM17.3597 24.3571C17.3788 24.3571 17.4376 24.3571 17.4829 24.2704L22.9524 13.7783H20.9451L19.7292 16.1815C19.698 16.2428 19.6492 16.2861 19.594 16.3124C19.5879 16.3154 19.5818 16.318 19.5755 16.3207C19.5636 16.3254 19.5517 16.3296 19.5396 16.3325C19.5238 16.3367 19.5073 16.3385 19.4907 16.3396L19.4895 16.3398L19.4853 16.3405C19.4838 16.3408 19.4822 16.3411 19.4807 16.3413L19.4786 16.3414L19.4778 16.3413L19.4766 16.3411L19.4757 16.3412L19.4747 16.3414H12.0983L13.1053 18.2055L18.1696 18.1984H18.1699C18.2709 18.1984 18.3642 18.2559 18.4156 18.3494C18.4669 18.443 18.468 18.5585 18.4186 18.6532L15.4471 24.3565C15.7248 24.3565 16.1913 24.3568 16.5957 24.3571H17.3597ZM14.9517 24.0534L14.7118 23.6312C14.4046 23.0891 14.011 22.3951 13.9666 22.319C13.9517 22.2932 13.9448 22.2305 13.9759 22.1707C14.0472 22.0339 15.392 19.4441 15.7196 18.8128L17.6833 18.8102L14.9517 24.0534ZM10.6277 18.6302L11.6037 20.4843C11.8129 20.0653 12.2916 19.1025 12.5982 18.4851L11.6114 16.6586L10.6277 18.6302ZM10.2932 20.773L9.37768 20.7727L9.22961 20.7727H9.22933C9.18075 20.7727 9.12196 20.7363 9.09518 20.6895L8.77747 20.1296C8.55112 19.7305 8.26239 19.2215 8.10229 18.94H10.1355L11.1006 20.7733L10.7657 20.7731L10.2932 20.773ZM16.1291 8.06051L16.3074 8.37435C16.6207 8.92684 17.0632 9.7067 17.1101 9.78783C17.1251 9.81359 17.132 9.87606 17.1005 9.93616L15.3568 13.294L13.3939 13.2966L16.1291 8.06051ZM20.4495 13.4756L19.4729 11.6207C19.2934 11.9709 18.9234 12.6952 18.6642 13.2027C18.5841 13.3594 18.5146 13.4955 18.4646 13.5934C18.5769 13.8019 18.7762 14.1746 19.0495 14.6866C19.1878 14.9456 19.3352 15.2216 19.4539 15.443L20.4495 13.4756Z" fill="#2E75FF"/>
</svg>
