<svg width="98" height="32" viewBox="0 0 98 32" fill="none" xmlns="http://www.w3.org/2000/svg">
<path fill-rule="evenodd" clip-rule="evenodd" d="M13.2087 3C13.1789 3 13.0873 3 13.0164 3.13628C12.9248 3.3115 5.82455 16.9316 4.45376 19.5617H7.59421L9.49828 15.7459C9.5778 15.5869 9.72862 15.4983 9.88506 15.4956C9.88704 15.4954 9.88902 15.4949 9.89103 15.4945C9.89384 15.4939 9.89672 15.4932 9.89975 15.4932H21.4019C21.2394 15.1896 21.0329 14.8035 20.7831 14.3353L20.7194 14.2161C20.4091 13.6353 20.0625 12.9865 19.8712 12.6309L12.1418 12.642H12.1413C12.1407 12.642 12.1401 12.6418 12.1394 12.6416L12.1387 12.6416L11.9412 12.642H11.9408H11.9404C11.9403 12.642 11.9402 12.642 11.9401 12.642C11.9401 12.6419 11.94 12.6419 11.9399 12.6418C11.9398 12.6417 11.9397 12.6416 11.9395 12.6416C11.9045 12.6416 11.8712 12.6365 11.8388 12.6281C11.833 12.6267 11.8275 12.6248 11.8221 12.6228C11.8186 12.6216 11.8151 12.6204 11.8116 12.6193C11.7861 12.611 11.7619 12.6003 11.739 12.5878C11.7366 12.5866 11.7342 12.5858 11.7318 12.5849C11.7286 12.5838 11.7255 12.5827 11.7226 12.5808C11.72 12.5792 11.7177 12.5774 11.7154 12.5755L11.7108 12.5719L11.7083 12.5702C11.6949 12.5614 11.6824 12.5516 11.6698 12.541L11.6679 12.5394C11.6574 12.5307 11.6472 12.5223 11.6374 12.5127C11.6291 12.5041 11.6212 12.4949 11.6135 12.4858L11.608 12.4793C11.5981 12.4673 11.5886 12.4557 11.5804 12.4432C11.5733 12.4329 11.5674 12.4223 11.5614 12.4117L11.5575 12.4047C11.5501 12.3913 11.5432 12.3783 11.5372 12.3644C11.5317 12.3517 11.5272 12.3382 11.5229 12.3251L11.5229 12.325L11.5216 12.3213L11.5204 12.3175C11.5161 12.304 11.5118 12.2908 11.5087 12.2768C11.5052 12.2624 11.503 12.248 11.5013 12.2337C11.4987 12.2165 11.497 12.1994 11.4966 12.1817C11.4964 12.1793 11.4961 12.1769 11.4957 12.1746C11.4953 12.1711 11.4948 12.1677 11.4948 12.1641C11.4948 12.1593 11.4954 12.1548 11.496 12.1503C11.4964 12.1471 11.4968 12.1438 11.497 12.1405C11.4974 12.1229 11.4991 12.1053 11.5017 12.0872C11.5039 12.0728 11.5069 12.0584 11.5104 12.0441C11.5143 12.0288 11.5186 12.0139 11.5233 11.9986C11.529 11.9829 11.535 11.9676 11.5419 11.9528L11.5438 11.9483L11.5457 11.9432C11.5474 11.9386 11.5491 11.934 11.5514 11.9296L16.2161 3.00046L13.2087 3ZM23.0091 8.61077L24.5204 11.481H27.7036C27.4698 11.0698 27.061 10.3495 26.7192 9.7469L26.1491 8.74241C26.1064 8.66732 26.0152 8.6117 25.937 8.6117L23.0091 8.61077ZM18.9117 29C18.9415 29 19.0336 29 19.1045 28.8642L27.6676 12.4378H24.525L22.6213 16.2004C22.5725 16.2963 22.496 16.364 22.4096 16.4052C22.4001 16.4099 22.3906 16.4141 22.3806 16.4182C22.362 16.4256 22.3434 16.4321 22.3244 16.4368C22.2998 16.4433 22.2739 16.446 22.2479 16.4479L22.2449 16.4482L22.2394 16.4493C22.236 16.45 22.2325 16.4507 22.2289 16.4507L22.2275 16.4504L22.2259 16.4502C22.2246 16.4502 22.2237 16.4507 22.2229 16.4507H10.6745L12.2509 19.3691L20.1797 19.358H20.1801C20.3383 19.358 20.4843 19.4479 20.5647 19.5944C20.6451 19.7409 20.6468 19.9216 20.5695 20.07L15.9173 28.9991C16.3521 28.9991 17.0824 28.9995 17.7155 29H18.9117ZM15.1416 28.5245L14.766 27.8635C14.285 27.0148 13.6688 25.9282 13.5992 25.8091C13.5759 25.7688 13.5651 25.6705 13.6139 25.5769C13.7254 25.3627 15.8308 21.3082 16.3438 20.3199L19.4181 20.3157L15.1416 28.5245ZM8.37186 20.034L9.89996 22.9366C10.2275 22.2807 10.9769 20.7733 11.457 19.8068L9.91206 16.9473L8.37186 20.034ZM6.41812 23.3882H6.41495L6.18313 23.3881H6.18269C6.10664 23.3881 6.01459 23.3311 5.97267 23.2579L5.47526 22.3813C5.12089 21.7565 4.66886 20.9597 4.41821 20.5188H7.60145L9.11226 23.3891L8.58806 23.3889L7.84821 23.3886C7.30337 23.3886 6.76064 23.3884 6.44531 23.3882L6.42626 23.3882L6.41812 23.3882ZM16.9849 3.48612L17.264 3.97747C17.7545 4.84243 18.4473 6.06338 18.5207 6.19039C18.5441 6.23072 18.5549 6.32853 18.5056 6.42262L15.7757 11.6796L12.7027 11.6838L16.9849 3.48612ZM23.749 11.9639L22.22 9.05986C21.9391 9.60803 21.36 10.7416 20.9541 11.5362C20.8287 11.7817 20.7198 11.9949 20.6414 12.1484C20.8173 12.4747 21.1293 13.0583 21.5571 13.8598C21.7736 14.2654 22.0044 14.6974 22.1902 15.0441L23.749 11.9639Z" fill="black"/>
<path d="M43.95 9H45.35V23H43.95V16.2H36.6V23H35.2V9H36.6V14.8H43.95V9ZM47.7586 23V9H49.2786L56.6686 20.47V9H58.0686V23H56.5586L49.1586 11.53V23H47.7586ZM65.3634 23.26C64.6168 23.26 63.8934 23.1433 63.1934 22.91C62.5001 22.6767 61.8934 22.3433 61.3734 21.91C60.8534 21.4767 60.4868 20.96 60.2734 20.36L61.5834 19.87C61.7301 20.2833 61.9968 20.64 62.3834 20.94C62.7768 21.2333 63.2334 21.46 63.7534 21.62C64.2801 21.78 64.8168 21.86 65.3634 21.86C66.0034 21.86 66.6001 21.7533 67.1534 21.54C67.7068 21.3267 68.1534 21.03 68.4934 20.65C68.8334 20.2633 69.0034 19.81 69.0034 19.29C69.0034 18.7633 68.8268 18.33 68.4734 17.99C68.1201 17.65 67.6634 17.3833 67.1034 17.19C66.5501 16.99 65.9701 16.8367 65.3634 16.73C64.4101 16.5633 63.5534 16.3367 62.7934 16.05C62.0401 15.7633 61.4434 15.36 61.0034 14.84C60.5634 14.3133 60.3434 13.62 60.3434 12.76C60.3434 11.9533 60.5768 11.2533 61.0434 10.66C61.5101 10.0667 62.1234 9.60667 62.8834 9.28C63.6501 8.95333 64.4768 8.79 65.3634 8.79C66.0901 8.79 66.8001 8.90333 67.4934 9.13C68.1868 9.35667 68.7968 9.68667 69.3234 10.12C69.8568 10.5533 70.2401 11.0833 70.4734 11.71L69.1434 12.19C68.9968 11.77 68.7268 11.4133 68.3334 11.12C67.9468 10.82 67.4934 10.5933 66.9734 10.44C66.4534 10.28 65.9168 10.2 65.3634 10.2C64.7301 10.1933 64.1368 10.3 63.5834 10.52C63.0368 10.7333 62.5934 11.0333 62.2534 11.42C61.9134 11.8 61.7434 12.2467 61.7434 12.76C61.7434 13.36 61.9001 13.8233 62.2134 14.15C62.5334 14.47 62.9668 14.71 63.5134 14.87C64.0601 15.03 64.6768 15.1733 65.3634 15.3C66.2568 15.4533 67.0868 15.6933 67.8534 16.02C68.6201 16.34 69.2368 16.77 69.7034 17.31C70.1701 17.8433 70.4034 18.5033 70.4034 19.29C70.4034 20.09 70.1701 20.79 69.7034 21.39C69.2368 21.9833 68.6201 22.4433 67.8534 22.77C67.0934 23.0967 66.2634 23.26 65.3634 23.26Z" fill="black"/>
</svg>
