<svg width="24" height="26" viewBox="0 0 24 26" fill="none" xmlns="http://www.w3.org/2000/svg">
<path fill-rule="evenodd" clip-rule="evenodd" d="M9.20874 0C9.17893 0 9.08731 0 9.01644 0.13628C8.92482 0.311497 1.82455 13.9316 0.453759 16.5617H3.59421L5.49828 12.7459C5.5778 12.5869 5.72862 12.4983 5.88506 12.4956C5.88704 12.4954 5.88902 12.4949 5.89103 12.4945C5.89384 12.4939 5.89672 12.4932 5.89975 12.4932H17.4019C17.2394 12.1896 17.0329 11.8035 16.7831 11.3353L16.7194 11.2161C16.4091 10.6353 16.0625 9.98646 15.8712 9.63091L8.14176 9.64203H8.14133C8.14069 9.64203 8.14005 9.64178 8.13942 9.64165L8.13873 9.64157L7.94124 9.64203H7.94081H7.94038C7.94028 9.64203 7.94021 9.64201 7.94015 9.64197C7.94007 9.64193 7.94 9.64186 7.93994 9.6418C7.93983 9.64168 7.93973 9.64157 7.93951 9.64157C7.90451 9.64157 7.87123 9.63647 7.83882 9.62812C7.83301 9.62671 7.82752 9.62477 7.82206 9.62285C7.81859 9.62162 7.81512 9.6204 7.81159 9.61932C7.7861 9.61097 7.7619 9.60031 7.73899 9.5878C7.73658 9.5866 7.73417 9.58575 7.7318 9.58491C7.72864 9.58379 7.72553 9.5827 7.72257 9.58084C7.71998 9.57922 7.71771 9.57737 7.71544 9.57551L7.71079 9.57186L7.70831 9.57018C7.69491 9.56138 7.68238 9.55164 7.66985 9.54098L7.66789 9.53937C7.65736 9.53068 7.64721 9.52231 7.63744 9.5127C7.62906 9.50409 7.62125 9.49488 7.61354 9.48579L7.60805 9.47933C7.59811 9.46728 7.5886 9.45569 7.58039 9.44317C7.57329 9.43289 7.56736 9.4223 7.5614 9.41165L7.55749 9.4047C7.55014 9.39126 7.54323 9.37828 7.53718 9.36437C7.53166 9.35169 7.52722 9.33823 7.52287 9.32506L7.52286 9.32504L7.52162 9.32126L7.52041 9.31748C7.51606 9.30397 7.51182 9.29076 7.50865 9.27676C7.5052 9.26239 7.50304 9.24802 7.50131 9.23365C7.49871 9.2165 7.49699 9.19935 7.49655 9.18174C7.49638 9.17929 7.49606 9.17693 7.49575 9.17457C7.49528 9.17113 7.49483 9.16771 7.49483 9.16412C7.49483 9.15931 7.4954 9.15481 7.49597 9.15035C7.49639 9.14707 7.4968 9.14382 7.49699 9.14048C7.49742 9.12287 7.49915 9.10526 7.50174 9.08718C7.5039 9.07281 7.50693 9.05844 7.51038 9.04407C7.51427 9.02877 7.51859 9.01394 7.52335 8.99864C7.52897 8.98288 7.53502 8.96758 7.54193 8.95275L7.54376 8.94833L7.5457 8.9432C7.54742 8.93856 7.54913 8.93398 7.55144 8.92957L12.2161 0.000463537L9.20874 0ZM19.0091 5.61077L20.5204 8.48099H23.7036C23.4698 8.06983 23.061 7.3495 22.7192 6.7469L22.1491 5.74241C22.1064 5.66732 22.0152 5.6117 21.937 5.6117L19.0091 5.61077ZM14.9117 26C14.9415 26 15.0336 26 15.1045 25.8642L23.6676 9.43784H20.525L18.6213 13.2004C18.5725 13.2963 18.496 13.364 18.4096 13.4052C18.4001 13.4099 18.3906 13.4141 18.3806 13.4182C18.362 13.4256 18.3434 13.4321 18.3244 13.4368C18.2998 13.4433 18.2739 13.446 18.2479 13.4479L18.2449 13.4482L18.2394 13.4493C18.236 13.45 18.2325 13.4507 18.2289 13.4507L18.2275 13.4504L18.2259 13.4502C18.2246 13.4502 18.2237 13.4507 18.2229 13.4507H6.67446L8.25095 16.3691L16.1797 16.358H16.1801C16.3383 16.358 16.4843 16.4479 16.5647 16.5944C16.6451 16.7409 16.6468 16.9216 16.5695 17.07L11.9173 25.9991C12.3521 25.9991 13.0824 25.9995 13.7155 26H14.9117ZM11.1416 25.5245L10.766 24.8635C10.285 24.0148 9.66879 22.9282 9.59921 22.8091C9.57588 22.7688 9.56507 22.6705 9.6139 22.5769C9.7254 22.3627 11.8308 18.3082 12.3438 17.3199L15.4181 17.3157L11.1416 25.5245ZM4.37186 17.034L5.89996 19.9366C6.22753 19.2807 6.97688 17.7733 7.457 16.8068L5.91206 13.9473L4.37186 17.034ZM2.41812 20.3882H2.41495L2.18313 20.3881H2.18269C2.10664 20.3881 2.01459 20.3311 1.97267 20.2579L1.47526 19.3813C1.12089 18.7565 0.668863 17.9597 0.418213 17.5188H3.60145L5.11226 20.3891L4.58806 20.3889L3.84821 20.3886C3.30337 20.3886 2.76064 20.3884 2.44531 20.3882L2.42626 20.3882L2.41812 20.3882ZM12.9849 0.486117L13.264 0.977466C13.7545 1.84243 14.4473 3.06338 14.5207 3.19039C14.5441 3.23072 14.5549 3.32853 14.5056 3.42262L11.7757 8.67959L8.70265 8.68377L12.9849 0.486117ZM19.749 8.96392L18.22 6.05986C17.9391 6.60803 17.36 7.74163 16.9541 8.53622C16.8287 8.78174 16.7198 8.99489 16.6414 9.1484C16.8173 9.47473 17.1293 10.0583 17.5571 10.8598C17.7736 11.2654 18.0044 11.6974 18.1902 12.0441L19.749 8.96392Z" fill="#2E75FF"/>
</svg>
