<svg width="32" height="32" viewBox="0 0 32 32" fill="none" xmlns="http://www.w3.org/2000/svg">
<path d="M24.3333 8.5H11.8333C11.2583 8.5 10.8083 8.79167 10.5083 9.23333L6 16L10.5083 22.7583C10.8083 23.2 11.2583 23.5 11.8333 23.5H24.3333C25.25 23.5 26 22.75 26 21.8333V10.1667C26 9.25 25.25 8.5 24.3333 8.5ZM24.3333 21.8333H11.8917L8 16L11.8833 10.1667H24.3333V21.8333ZM14.675 20.1667L17.6667 17.175L20.6583 20.1667L21.8333 18.9917L18.8417 16L21.8333 13.0083L20.6583 11.8333L17.6667 14.825L14.675 11.8333L13.5 13.0083L16.4917 16L13.5 18.9917L14.675 20.1667Z" fill="black"/>
</svg>
