<svg width="32" height="32" viewBox="0 0 32 32" fill="none" xmlns="http://www.w3.org/2000/svg">
<path fill-rule="evenodd" clip-rule="evenodd" d="M15.652 11.5942L10.0577 6L4.4635 11.5942L6.14424 13.275L8.86929 10.5499V20.7539C8.86929 23.3793 10.9977 25.5077 13.6232 25.5077H16.0001V23.1308H13.6232C12.3104 23.1308 11.2462 22.0666 11.2462 20.7539V10.55L13.9712 13.275L15.652 11.5942ZM20.7539 21.4501L18.0289 18.725L16.3481 20.4058L21.9424 26L27.5366 20.4058L25.8559 18.725L23.1308 21.45V11.4032C23.1308 8.77773 21.0025 6.64935 18.377 6.64935L16.0001 6.64935V9.02628L18.377 9.02628C19.6897 9.02628 20.7539 10.0905 20.7539 11.4032V21.4501Z" fill="#2E75FF"/>
</svg>
