<svg width="32" height="32" viewBox="0 0 32 32" fill="none" xmlns="http://www.w3.org/2000/svg">
<g clip-path="url(#clip0_201_878)">
<path d="M15.9014 10.782C15.4912 10.7762 15.1012 10.8427 14.7314 10.9813C14.3674 11.1142 14.0699 11.2962 13.8387 11.5273C13.6076 11.7584 13.4921 12.0242 13.4921 12.3247C13.4921 12.7118 13.599 13.0036 13.8127 13.2C14.0323 13.3964 14.3241 13.5409 14.6881 13.6333C15.0521 13.72 15.4565 13.8009 15.9014 13.876C16.7103 14.0031 17.4585 14.2169 18.1461 14.5173C18.8336 14.8178 19.3854 15.2193 19.8014 15.722C20.2174 16.2189 20.4254 16.8284 20.4254 17.5507C20.4254 18.2093 20.255 18.7958 19.9141 19.31C19.5732 19.8184 19.1139 20.2344 18.5361 20.558C17.9641 20.8816 17.3285 21.0867 16.6294 21.1733V22.9413H15.1821V21.1733C14.5985 21.104 14.0496 20.9567 13.5354 20.7313C13.0212 20.506 12.5734 20.2113 12.1921 19.8473C11.8165 19.4833 11.5392 19.0587 11.3601 18.5733L13.3447 17.8453C13.4256 18.0764 13.5903 18.2873 13.8387 18.478C14.0872 18.6687 14.3905 18.8218 14.7487 18.9373C15.107 19.0529 15.4912 19.1107 15.9014 19.1107C16.3232 19.1107 16.7161 19.0471 17.0801 18.92C17.4499 18.7871 17.7474 18.6051 17.9727 18.374C18.1981 18.1371 18.3107 17.8627 18.3107 17.5507C18.3107 17.2329 18.1923 16.9729 17.9554 16.7707C17.7185 16.5627 17.4152 16.398 17.0454 16.2767C16.6756 16.1553 16.2943 16.0629 15.9014 15.9993C15.0405 15.8664 14.2692 15.6613 13.5874 15.384C12.9056 15.1067 12.3654 14.7224 11.9667 14.2313C11.5739 13.7402 11.3774 13.1047 11.3774 12.3247C11.3774 11.666 11.5479 11.0796 11.8887 10.5653C12.2354 10.0511 12.6947 9.63511 13.2667 9.31733C13.8445 8.99378 14.483 8.78867 15.1821 8.702V6.92533H16.6294V8.702C17.2014 8.77133 17.7445 8.91867 18.2587 9.144C18.773 9.36933 19.2207 9.66689 19.6021 10.0367C19.9892 10.4007 20.2723 10.8282 20.4514 11.3193L18.4581 12.0387C18.3772 11.8076 18.2125 11.5967 17.9641 11.406C17.7156 11.2153 17.4123 11.0651 17.0541 10.9553C16.6959 10.8398 16.3116 10.782 15.9014 10.782Z" fill="#2E75FF"/>
</g>
<defs>
<clipPath id="clip0_201_878">
<rect width="32" height="32" rx="16" fill="white"/>
</clipPath>
</defs>
</svg>
