<svg width="98" height="32" viewBox="0 0 98 32" fill="none" xmlns="http://www.w3.org/2000/svg">
<path d="M15.9929 9.26082C15.327 9.25144 14.6938 9.35931 14.0935 9.58442C13.5026 9.80015 13.0196 10.0956 12.6444 10.4708C12.2692 10.846 12.0816 11.2774 12.0816 11.7652C12.0816 12.3936 12.2552 12.8672 12.6022 13.1861C12.9586 13.5051 13.4323 13.7395 14.0232 13.8896C14.6141 14.0303 15.2707 14.1616 15.9929 14.2836C17.306 14.4899 18.5207 14.8369 19.6368 15.3247C20.753 15.8124 21.6487 16.4643 22.3241 17.2803C22.9994 18.0869 23.3371 19.0765 23.3371 20.2489C23.3371 21.3182 23.0604 22.2702 22.507 23.105C21.9536 23.9304 21.2079 24.6057 20.27 25.131C19.3414 25.6562 18.3096 25.9892 17.1747 26.1299V29H14.8252V26.1299C13.8778 26.0173 12.9868 25.7781 12.152 25.4123C11.3172 25.0465 10.5903 24.5682 9.97125 23.9773C9.36159 23.3864 8.91137 22.697 8.62061 21.9091L11.8425 20.7273C11.9738 21.1025 12.2411 21.4448 12.6444 21.7543C13.0477 22.0639 13.5402 22.3124 14.1217 22.5C14.7032 22.6876 15.327 22.7814 15.9929 22.7814C16.6776 22.7814 17.3154 22.6782 17.9063 22.4719C18.5066 22.2561 18.9897 21.9607 19.3555 21.5855C19.7213 21.2009 19.9042 20.7554 19.9042 20.2489C19.9042 19.733 19.7119 19.311 19.3273 18.9827C18.9428 18.645 18.4503 18.3777 17.85 18.1807C17.2498 17.9838 16.6307 17.8337 15.9929 17.7305C14.5954 17.5148 13.3432 17.1818 12.2364 16.7316C11.1296 16.2814 10.2526 15.6576 9.60545 14.8604C8.96765 14.0631 8.64874 13.0314 8.64874 11.7652C8.64874 10.6959 8.92544 9.74387 9.47883 8.90909C10.0416 8.07431 10.7873 7.39899 11.7158 6.88312C12.6538 6.35786 13.6902 6.02489 14.8252 5.8842V3H17.1747V5.8842C18.1033 5.99675 18.985 6.23593 19.8197 6.60173C20.6545 6.96753 21.3814 7.45058 22.0005 8.05087C22.6289 8.64178 23.0885 9.33586 23.3793 10.1331L20.1433 11.3009C20.012 10.9257 19.7447 10.5833 19.3414 10.2738C18.9381 9.96429 18.4456 9.72042 17.8641 9.54221C17.2826 9.35462 16.6588 9.26082 15.9929 9.26082Z" fill="#2E75FF"/>
<path d="M40.63 23.26C39.51 23.26 38.5433 22.9867 37.73 22.44C36.9167 21.8933 36.29 21.16 35.85 20.24C35.4167 19.3133 35.2 18.2867 35.2 17.16V9H36.6V17.16C36.6 18.0133 36.7567 18.7967 37.07 19.51C37.3833 20.2233 37.84 20.7933 38.44 21.22C39.04 21.6467 39.77 21.86 40.63 21.86C41.51 21.86 42.2467 21.6467 42.84 21.22C43.44 20.7867 43.8933 20.2133 44.2 19.5C44.5067 18.7867 44.66 18.0067 44.66 17.16V9H46.06V17.16C46.06 18.0067 45.9333 18.8 45.68 19.54C45.4333 20.2733 45.0733 20.92 44.6 21.48C44.1333 22.04 43.5633 22.4767 42.89 22.79C42.2233 23.1033 41.47 23.26 40.63 23.26ZM53.3517 23.26C52.6051 23.26 51.8817 23.1433 51.1817 22.91C50.4884 22.6767 49.8817 22.3433 49.3617 21.91C48.8417 21.4767 48.4751 20.96 48.2617 20.36L49.5717 19.87C49.7184 20.2833 49.9851 20.64 50.3717 20.94C50.7651 21.2333 51.2217 21.46 51.7417 21.62C52.2684 21.78 52.8051 21.86 53.3517 21.86C53.9917 21.86 54.5884 21.7533 55.1417 21.54C55.6951 21.3267 56.1417 21.03 56.4817 20.65C56.8217 20.2633 56.9917 19.81 56.9917 19.29C56.9917 18.7633 56.8151 18.33 56.4617 17.99C56.1084 17.65 55.6517 17.3833 55.0917 17.19C54.5384 16.99 53.9584 16.8367 53.3517 16.73C52.3984 16.5633 51.5417 16.3367 50.7817 16.05C50.0284 15.7633 49.4317 15.36 48.9917 14.84C48.5517 14.3133 48.3317 13.62 48.3317 12.76C48.3317 11.9533 48.5651 11.2533 49.0317 10.66C49.4984 10.0667 50.1117 9.60667 50.8717 9.28C51.6384 8.95333 52.4651 8.79 53.3517 8.79C54.0784 8.79 54.7884 8.90333 55.4817 9.13C56.1751 9.35667 56.7851 9.68667 57.3117 10.12C57.8451 10.5533 58.2284 11.0833 58.4617 11.71L57.1317 12.19C56.9851 11.77 56.7151 11.4133 56.3217 11.12C55.9351 10.82 55.4817 10.5933 54.9617 10.44C54.4417 10.28 53.9051 10.2 53.3517 10.2C52.7184 10.1933 52.1251 10.3 51.5717 10.52C51.0251 10.7333 50.5817 11.0333 50.2417 11.42C49.9017 11.8 49.7317 12.2467 49.7317 12.76C49.7317 13.36 49.8884 13.8233 50.2017 14.15C50.5217 14.47 50.9551 14.71 51.5017 14.87C52.0484 15.03 52.6651 15.1733 53.3517 15.3C54.2451 15.4533 55.0751 15.6933 55.8417 16.02C56.6084 16.34 57.2251 16.77 57.6917 17.31C58.1584 17.8433 58.3917 18.5033 58.3917 19.29C58.3917 20.09 58.1584 20.79 57.6917 21.39C57.2251 21.9833 56.6084 22.4433 55.8417 22.77C55.0817 23.0967 54.2517 23.26 53.3517 23.26ZM60.8055 23V9H65.4355C66.4021 9 67.3088 9.18333 68.1555 9.55C69.0021 9.91 69.7455 10.4133 70.3855 11.06C71.0255 11.7 71.5255 12.4433 71.8855 13.29C72.2521 14.13 72.4355 15.0333 72.4355 16C72.4355 16.9667 72.2521 17.8733 71.8855 18.72C71.5255 19.56 71.0255 20.3033 70.3855 20.95C69.7455 21.59 69.0021 22.0933 68.1555 22.46C67.3088 22.82 66.4021 23 65.4355 23H60.8055ZM62.2055 21.6H65.4355C66.2088 21.6 66.9321 21.4567 67.6055 21.17C68.2855 20.8767 68.8821 20.4733 69.3955 19.96C69.9088 19.4467 70.3088 18.8533 70.5955 18.18C70.8888 17.5 71.0355 16.7733 71.0355 16C71.0355 15.2267 70.8888 14.5033 70.5955 13.83C70.3088 13.15 69.9055 12.5533 69.3855 12.04C68.8721 11.5267 68.2788 11.1267 67.6055 10.84C66.9321 10.5467 66.2088 10.4 65.4355 10.4H62.2055V21.6Z" fill="#2E75FF"/>
</svg>
